<svg width="24" height="24" viewBox="0 0 24 24" fill="none" xmlns="http://www.w3.org/2000/svg">
<g id="Phosphor Icons Regular / AirplaneTilt">
<path id="Vector (Stroke)" fill-rule="evenodd" clip-rule="evenodd" d="M17.0476 4.82822C17.0347 4.84419 17.0212 4.85975 17.0069 4.87486L14.035 8.01549C13.8296 8.23259 13.5148 8.30699 13.2339 8.20484L5.43283 5.36807L4.16748 6.63343L10.1563 10.626C10.3432 10.7506 10.4645 10.9525 10.4866 11.1761C10.5087 11.3997 10.4295 11.6214 10.2706 11.7803L8.02058 14.0303C7.87993 14.171 7.68916 14.25 7.49025 14.25H5.55091L4.37524 15.4257L7.14872 16.3612C7.37026 16.4359 7.54427 16.6097 7.61932 16.8311L8.56323 19.6164L9.74025 18.4393V16.5C9.74025 16.2887 9.82939 16.0872 9.98575 15.945L12.2545 13.8825C12.4151 13.7366 12.631 13.6673 12.8465 13.6926C13.062 13.7179 13.256 13.8354 13.3784 14.0146L17.3495 19.8301L18.6222 18.5574L15.7854 10.7563C15.683 10.4746 15.7581 10.159 15.9764 9.95366L19.0929 7.02273C19.3503 6.74515 19.4942 6.37999 19.4942 6C19.4942 5.60114 19.3357 5.21861 19.0537 4.93658C18.7716 4.65454 18.3891 4.49609 17.9902 4.49609C17.6458 4.49609 17.3135 4.61429 17.0476 4.82822ZM20.2244 8.00802C20.7187 7.45806 20.9942 6.74323 20.9942 6C20.9942 5.20331 20.6777 4.43926 20.1143 3.87592C19.551 3.31258 18.7869 2.99609 17.9902 2.99609C17.1936 2.99609 16.4295 3.31258 15.8662 3.87592C15.8243 3.91777 15.7884 3.96344 15.7584 4.01184L13.2839 6.6269L5.49656 3.79515C5.22271 3.69557 4.91597 3.76362 4.70992 3.96967L2.45992 6.21967C2.30104 6.37855 2.22176 6.6003 2.2439 6.8239C2.26604 7.0475 2.38727 7.2494 2.57422 7.37403L8.56302 11.3666L7.17959 12.75H5.24025C5.04134 12.75 4.85057 12.829 4.70992 12.9697L2.45992 15.2197C2.27646 15.4031 2.20085 15.6684 2.26 15.921C2.31916 16.1736 2.50468 16.3777 2.75053 16.4607L6.31776 17.664L7.52993 21.2407C7.61315 21.4863 7.81728 21.6714 8.06976 21.7304C8.32224 21.7893 8.58725 21.7137 8.77058 21.5303L11.0206 19.2803C11.1612 19.1397 11.2402 18.9489 11.2402 18.75V16.8318L12.6257 15.5723L16.6209 21.4229C16.7468 21.6073 16.9482 21.726 17.1705 21.7467C17.3928 21.7675 17.6127 21.6882 17.7706 21.5303L20.0206 19.2803C20.2266 19.0743 20.2947 18.7675 20.1951 18.4937L17.3639 10.7079L20.0515 8.18027C20.0732 8.16292 20.0942 8.14419 20.1143 8.12408C20.1147 8.12367 20.1151 8.12326 20.1155 8.12286L20.1706 8.06783C20.1898 8.04864 20.2077 8.02867 20.2244 8.00802Z" fill="#FF703E"/>
</g>
</svg>
