<svg width="14" height="14" viewBox="0 0 14 14" fill="none" xmlns="http://www.w3.org/2000/svg">
<g id="Phosphor Icons Fill / ArrowBendDoubleUpLeft">
<path id="Vector" d="M4.68918 8.00084C4.77133 8.08378 4.81742 8.19581 4.81742 8.31256C4.81742 8.4293 4.77133 8.54133 4.68918 8.62427C4.60556 8.70513 4.49378 8.75033 4.37746 8.75033C4.26114 8.75033 4.14937 8.70513 4.06574 8.62427L1.44074 5.99927C1.35859 5.91633 1.3125 5.8043 1.3125 5.68756C1.3125 5.57081 1.35859 5.45878 1.44074 5.37584L4.06574 2.75084C4.15075 2.68107 4.25866 2.64542 4.3685 2.65081C4.47833 2.65621 4.58224 2.70226 4.65999 2.78002C4.73775 2.85778 4.78381 2.96168 4.7892 3.07152C4.7946 3.18135 4.75894 3.28927 4.68918 3.37427L2.37043 5.68756L4.68918 8.00084ZM7.43996 5.26646V3.06256C7.44023 2.97618 7.41493 2.89166 7.36724 2.81964C7.31955 2.74763 7.25162 2.69134 7.17199 2.65787C7.09118 2.62635 7.0031 2.61835 6.91793 2.6348C6.83277 2.65126 6.754 2.69149 6.69074 2.75084L4.06574 5.37584C3.98359 5.45878 3.9375 5.57081 3.9375 5.68756C3.9375 5.8043 3.98359 5.91633 4.06574 5.99927L6.69074 8.62427C6.77472 8.70455 6.88629 8.74956 7.00246 8.75006C7.06052 8.7498 7.11803 8.73867 7.17199 8.71724C7.25162 8.68377 7.31955 8.62748 7.36724 8.55547C7.41493 8.48345 7.44023 8.39893 7.43996 8.31256V6.14693C8.6348 6.25725 9.74548 6.80946 10.5546 7.6955C11.3638 8.58154 11.8132 9.73763 11.815 10.9376C11.815 11.0536 11.8611 11.1649 11.9431 11.2469C12.0251 11.329 12.1364 11.3751 12.2525 11.3751C12.3685 11.3751 12.4798 11.329 12.5618 11.2469C12.6439 11.1649 12.69 11.0536 12.69 10.9376C12.6888 9.50516 12.1477 8.12585 11.1746 7.07472C10.2016 6.0236 8.86801 5.37792 7.43996 5.26646Z" fill="#FF703E"/>
</g>
</svg>
