<svg width="24" height="24" viewBox="0 0 24 24" fill="none" xmlns="http://www.w3.org/2000/svg">
<g id="Phosphor Icons Regular / Bag">
<path id="Vector (Stroke)" fill-rule="evenodd" clip-rule="evenodd" d="M2.25 7.5C2.25 6.67157 2.92157 6 3.75 6H20.25C21.0784 6 21.75 6.67157 21.75 7.5V19.5C21.75 20.3284 21.0784 21 20.25 21H3.75C2.92157 21 2.25 20.3284 2.25 19.5V7.5ZM20.25 7.5H3.75V19.5H20.25V7.5Z" fill="#FF703E"/>
<path id="Vector (Stroke)_2" fill-rule="evenodd" clip-rule="evenodd" d="M12 3.75C11.2044 3.75 10.4413 4.06607 9.87868 4.62868C9.31607 5.19129 9 5.95435 9 6.75V9.75C9 10.1642 8.66421 10.5 8.25 10.5C7.83579 10.5 7.5 10.1642 7.5 9.75V6.75C7.5 5.55653 7.97411 4.41193 8.81802 3.56802C9.66193 2.72411 10.8065 2.25 12 2.25C13.1935 2.25 14.3381 2.72411 15.182 3.56802C16.0259 4.41193 16.5 5.55653 16.5 6.75V9.75C16.5 10.1642 16.1642 10.5 15.75 10.5C15.3358 10.5 15 10.1642 15 9.75V6.75C15 5.95435 14.6839 5.19129 14.1213 4.62868C13.5587 4.06607 12.7956 3.75 12 3.75Z" fill="#FF703E"/>
</g>
</svg>
