<svg width="23" height="23" viewBox="0 0 23 23" fill="none" xmlns="http://www.w3.org/2000/svg">
<g id="Fether Icons /check-square">
<path id="Vector (Stroke)" fill-rule="evenodd" clip-rule="evenodd" d="M21.6521 3.55604C22.0187 3.9086 22.0187 4.48021 21.6521 4.83276L12.2632 13.8605C11.8965 14.2131 11.3021 14.2131 10.9354 13.8605L8.11874 11.1522C7.75209 10.7997 7.75209 10.228 8.11874 9.87549C8.4854 9.52293 9.07987 9.52293 9.44653 9.87549L11.5993 11.9455L20.3243 3.55604C20.691 3.20349 21.2854 3.20349 21.6521 3.55604Z" fill="#FF703E"/>
<path id="Vector (Stroke)_2" fill-rule="evenodd" clip-rule="evenodd" d="M5.0276 4.19441C4.7786 4.19441 4.53979 4.28952 4.36371 4.45883C4.18763 4.62813 4.08872 4.85776 4.08872 5.09719V17.7361C4.08872 17.9755 4.18763 18.2051 4.36371 18.3744C4.53979 18.5437 4.7786 18.6389 5.0276 18.6389H18.1721C18.4211 18.6389 18.6599 18.5437 18.8359 18.3744C19.012 18.2051 19.1109 17.9755 19.1109 17.7361V11.4166C19.1109 10.918 19.5313 10.5139 20.0498 10.5139C20.5684 10.5139 20.9887 10.918 20.9887 11.4166V17.7361C20.9887 18.4544 20.692 19.1432 20.1637 19.6512C19.6355 20.1591 18.9191 20.4444 18.1721 20.4444H5.0276C4.28058 20.4444 3.56415 20.1591 3.03592 19.6512C2.50769 19.1432 2.21094 18.4544 2.21094 17.7361V5.09719C2.21094 4.37889 2.50769 3.69002 3.03592 3.18211C3.56415 2.6742 4.28058 2.38885 5.0276 2.38885H15.3554C15.8739 2.38885 16.2943 2.79304 16.2943 3.29163C16.2943 3.79022 15.8739 4.19441 15.3554 4.19441H5.0276Z" fill="#FF703E"/>
</g>
</svg>
