<svg width="299" height="67" viewBox="0 0 299 67" fill="none" xmlns="http://www.w3.org/2000/svg">
<path d="M20.36 66.96C15.4533 66.96 11.56 66.08 8.68 64.32C5.85333 62.5067 3.85333 60 2.68 56.8C1.50667 53.5467 0.92 49.7333 0.92 45.36V22C0.92 17.52 1.50667 13.68 2.68 10.48C3.85333 7.22666 5.85333 4.72 8.68 2.96C11.56 1.2 15.4533 0.319997 20.36 0.319997C25.16 0.319997 28.8933 1.12 31.56 2.72C34.28 4.26667 36.2 6.45333 37.32 9.28C38.44 12.1067 39 15.36 39 19.04V24.64H25V18.16C25 16.88 24.92 15.6533 24.76 14.48C24.6533 13.3067 24.28 12.3467 23.64 11.6C23 10.8 21.9067 10.4 20.36 10.4C18.8667 10.4 17.7467 10.8 17 11.6C16.3067 12.4 15.8533 13.4133 15.64 14.64C15.48 15.8133 15.4 17.0667 15.4 18.4V48.88C15.4 50.32 15.5067 51.6533 15.72 52.88C15.9867 54.0533 16.4667 55.0133 17.16 55.76C17.9067 56.4533 18.9733 56.8 20.36 56.8C21.8533 56.8 22.92 56.4267 23.56 55.68C24.2 54.88 24.6 53.8667 24.76 52.64C24.92 51.4133 25 50.16 25 48.88V42.08H39V47.68C39 51.36 38.44 54.6667 37.32 57.6C36.2533 60.48 34.36 62.7733 31.64 64.48C28.9733 66.1333 25.2133 66.96 20.36 66.96ZM67.0381 66.96C62.1848 66.96 58.3448 66.1067 55.5181 64.4C52.6915 62.6933 50.6648 60.24 49.4381 57.04C48.2115 53.84 47.5981 50.0267 47.5981 45.6V21.52C47.5981 17.04 48.2115 13.2267 49.4381 10.08C50.6648 6.93333 52.6915 4.53333 55.5181 2.88C58.3448 1.17333 62.1848 0.319997 67.0381 0.319997C71.9448 0.319997 75.8115 1.17333 78.6381 2.88C81.5181 4.53333 83.5715 6.93333 84.7981 10.08C86.0248 13.2267 86.6381 17.04 86.6381 21.52V45.6C86.6381 50.0267 86.0248 53.84 84.7981 57.04C83.5715 60.24 81.5181 62.6933 78.6381 64.4C75.8115 66.1067 71.9448 66.96 67.0381 66.96ZM67.0381 56.8C68.5315 56.8 69.6248 56.4267 70.3181 55.68C71.0115 54.9333 71.4648 53.9733 71.6781 52.8C71.8915 51.6267 71.9981 50.4267 71.9981 49.2V18C71.9981 16.72 71.8915 15.52 71.6781 14.4C71.4648 13.2267 71.0115 12.2667 70.3181 11.52C69.6248 10.7733 68.5315 10.4 67.0381 10.4C65.6515 10.4 64.6115 10.7733 63.9181 11.52C63.2248 12.2667 62.7715 13.2267 62.5581 14.4C62.3448 15.52 62.2381 16.72 62.2381 18V49.2C62.2381 50.4267 62.3181 51.6267 62.4781 52.8C62.6915 53.9733 63.1181 54.9333 63.7581 55.68C64.4515 56.4267 65.5448 56.8 67.0381 56.8ZM96.9531 66V1.2H107.033L120.313 32.4V1.2H132.153V66H122.473L109.193 32.4V66H96.9531ZM149.237 66V11.84H139.477V1.2H173.317V11.84H163.637V66H149.237ZM174.611 66L186.851 1.2H203.171L215.251 66H202.051L199.891 52.32H190.371L188.131 66H174.611ZM191.651 43.76H198.531L195.091 18.48L191.651 43.76ZM240.938 66.96C236.031 66.96 232.138 66.08 229.258 64.32C226.431 62.5067 224.431 60 223.258 56.8C222.085 53.5467 221.498 49.7333 221.498 45.36V22C221.498 17.52 222.085 13.68 223.258 10.48C224.431 7.22666 226.431 4.72 229.258 2.96C232.138 1.2 236.031 0.319997 240.938 0.319997C245.738 0.319997 249.471 1.12 252.138 2.72C254.858 4.26667 256.778 6.45333 257.898 9.28C259.018 12.1067 259.578 15.36 259.578 19.04V24.64H245.578V18.16C245.578 16.88 245.498 15.6533 245.338 14.48C245.231 13.3067 244.858 12.3467 244.218 11.6C243.578 10.8 242.485 10.4 240.938 10.4C239.445 10.4 238.325 10.8 237.578 11.6C236.885 12.4 236.431 13.4133 236.218 14.64C236.058 15.8133 235.978 17.0667 235.978 18.4V48.88C235.978 50.32 236.085 51.6533 236.298 52.88C236.565 54.0533 237.045 55.0133 237.738 55.76C238.485 56.4533 239.551 56.8 240.938 56.8C242.431 56.8 243.498 56.4267 244.138 55.68C244.778 54.88 245.178 53.8667 245.338 52.64C245.498 51.4133 245.578 50.16 245.578 48.88V42.08H259.578V47.68C259.578 51.36 259.018 54.6667 257.898 57.6C256.831 60.48 254.938 62.7733 252.218 64.48C249.551 66.1333 245.791 66.96 240.938 66.96ZM274.896 66V11.84H265.136V1.2H298.976V11.84H289.296V66H274.896Z" fill="#424242"/>
</svg>
