<svg width="30" height="30" viewBox="0 0 30 30" fill="none" xmlns="http://www.w3.org/2000/svg">
<g id="Phosphor Icons Regular / Heart">
<path id="Vector (Stroke)" fill-rule="evenodd" clip-rule="evenodd" d="M11.7985 6.23005C10.7464 5.66979 9.53263 5.49137 8.36378 5.72514C7.19492 5.95891 6.14317 6.59043 5.38745 7.51226C4.63174 8.43408 4.21875 9.58926 4.21875 10.7813C4.21875 14.3341 6.86434 17.7252 9.76778 20.3383C11.1911 21.6194 12.6188 22.662 13.6926 23.385C14.2285 23.7459 14.6741 24.0256 14.9838 24.2141C14.9893 24.2174 14.9947 24.2207 15 24.2239C15.0053 24.2207 15.0107 24.2174 15.0162 24.2141C15.3259 24.0256 15.7715 23.7459 16.3074 23.385C17.3812 22.662 18.8089 21.6194 20.2322 20.3383C23.1357 17.7252 25.7812 14.3341 25.7812 10.7813C25.7812 9.58926 25.3683 8.43408 24.6125 7.51226C23.8568 6.59043 22.8051 5.95891 21.6362 5.72514C20.4674 5.49137 19.2536 5.66979 18.2015 6.23005C17.1494 6.7903 16.3238 7.69778 15.8654 8.79809L15 8.43751L14.1346 8.79809C13.6762 7.69778 12.8506 6.7903 11.7985 6.23005ZM15 6.5625C14.3858 5.74355 13.5957 5.06281 12.6798 4.57506C11.2451 3.81108 9.58995 3.56778 7.99606 3.88655C6.40217 4.20533 4.96796 5.06649 3.93744 6.32353C2.90692 7.58056 2.34375 9.15581 2.34375 10.7813C2.34375 15.1971 5.55754 19.0717 8.51347 21.732C10.0198 23.0877 11.5218 24.1838 12.6453 24.9403C13.208 25.3191 13.678 25.6143 14.0091 25.8158C14.1747 25.9166 14.3057 25.994 14.3964 26.0469C14.4418 26.0733 14.477 26.0936 14.5015 26.1076L14.5301 26.1238L14.5381 26.1284L14.5406 26.1297L14.5414 26.1302C14.5417 26.1303 14.5419 26.1305 15 25.3125L14.5419 26.1305C14.8265 26.2899 15.1735 26.2899 15.4581 26.1305L15 25.3125C15.4581 26.1305 15.4583 26.1303 15.4586 26.1302L15.4594 26.1297L15.4619 26.1284L15.4699 26.1238L15.4985 26.1076C15.523 26.0936 15.5582 26.0733 15.6036 26.0469C15.6943 25.994 15.8253 25.9166 15.9909 25.8158C16.322 25.6143 16.792 25.3191 17.3547 24.9403C18.4782 24.1838 19.9802 23.0877 21.4865 21.732C24.4425 19.0717 27.6562 15.1971 27.6562 10.7813C27.6562 9.15581 27.0931 7.58056 26.0626 6.32353C25.032 5.06649 23.5978 4.20533 22.0039 3.88655C20.4101 3.56778 18.7549 3.81108 17.3202 4.57506C16.4043 5.06281 15.6142 5.74355 15 6.5625Z" fill="#FF703E"/>
</g>
</svg>
