<svg width="378" height="67" viewBox="0 0 378 67" fill="none" xmlns="http://www.w3.org/2000/svg">
<path d="M0 65.68V0.879998H14.32V27.12H24.32V0.879998H38.72V65.68H24.32V37.36H14.32V65.68H0Z" fill="#424242"/>
<path d="M68.9081 66.64C63.9481 66.64 60.0548 65.84 57.2281 64.24C54.4548 62.5867 52.5081 60.2133 51.3881 57.12C50.2681 53.9733 49.7081 50.1333 49.7081 45.6V0.879998H63.8681V47.76C63.8681 49.0933 63.9748 50.4267 64.1881 51.76C64.4015 53.0933 64.8548 54.1867 65.5481 55.04C66.2948 55.8933 67.4148 56.32 68.9081 56.32C70.4548 56.32 71.5748 55.8933 72.2681 55.04C72.9615 54.1867 73.3881 53.0933 73.5481 51.76C73.7615 50.4267 73.8681 49.0933 73.8681 47.76V0.879998H88.1081V45.6C88.1081 50.1333 87.5215 53.9733 86.3481 57.12C85.2281 60.2133 83.2815 62.5867 80.5081 64.24C77.7348 65.84 73.8681 66.64 68.9081 66.64Z" fill="#424242"/>
<path d="M98.8194 65.68V0.879998H116.659C121.033 0.879998 124.819 1.36 128.019 2.32C131.219 3.28 133.699 5.01333 135.459 7.52C137.273 9.97333 138.179 13.4667 138.179 18C138.179 20.6667 137.966 23.04 137.539 25.12C137.113 27.2 136.313 29.0133 135.139 30.56C134.019 32.0533 132.393 33.3067 130.259 34.32L139.139 65.68H124.339L117.219 36.64H113.139V65.68H98.8194ZM113.139 28.4H117.139C119.166 28.4 120.739 28.0533 121.859 27.36C122.979 26.6133 123.753 25.5733 124.179 24.24C124.659 22.8533 124.899 21.2 124.899 19.28C124.899 16.5067 124.393 14.3467 123.379 12.8C122.366 11.2533 120.499 10.48 117.779 10.48H113.139V28.4Z" fill="#424242"/>
<path d="M164.643 66.64C160.163 66.64 156.616 65.7067 154.003 63.84C151.443 61.9733 149.603 59.36 148.483 56C147.416 52.5867 146.883 48.6667 146.883 44.24V22.48C146.883 17.8933 147.47 13.92 148.643 10.56C149.816 7.2 151.816 4.61333 154.643 2.8C157.523 0.933334 161.416 0 166.323 0C171.123 0 174.883 0.800001 177.603 2.4C180.376 4 182.35 6.21333 183.523 9.04C184.696 11.8667 185.283 15.1733 185.283 18.96V23.12H171.283V17.84C171.283 16.4533 171.176 15.1733 170.963 14C170.803 12.8267 170.376 11.8933 169.683 11.2C169.043 10.4533 167.976 10.08 166.483 10.08C164.936 10.08 163.816 10.5067 163.123 11.36C162.43 12.16 161.976 13.1733 161.763 14.4C161.603 15.6267 161.523 16.9067 161.523 18.24V48.24C161.523 49.68 161.656 51.04 161.923 52.32C162.243 53.5467 162.776 54.56 163.523 55.36C164.323 56.1067 165.443 56.48 166.883 56.48C168.376 56.48 169.523 56.08 170.323 55.28C171.123 54.48 171.683 53.44 172.003 52.16C172.323 50.88 172.483 49.52 172.483 48.08V40.48H166.643V32.08H185.363V65.68H175.923L175.123 60.32C174.27 62.1333 173.016 63.6533 171.363 64.88C169.71 66.0533 167.47 66.64 164.643 66.64Z" fill="#424242"/>
<path d="M196.166 65.68V0.879998H210.486V27.12H220.486V0.879998H234.886V65.68H220.486V37.36H210.486V65.68H196.166Z" fill="#424242"/>
<path d="M243.234 65.68L255.474 0.879998H271.794L283.874 65.68H270.674L268.514 52H258.994L256.754 65.68H243.234ZM260.274 43.44H267.154L263.714 18.16L260.274 43.44Z" fill="#424242"/>
<path d="M292.016 65.68V0.879998H308.416C314.07 0.879998 318.47 1.6 321.616 3.04C324.763 4.42667 326.976 6.64 328.256 9.68C329.536 12.6667 330.176 16.56 330.176 21.36V44.88C330.176 49.7333 329.536 53.7067 328.256 56.8C326.976 59.84 324.763 62.08 321.616 63.52C318.523 64.96 314.176 65.68 308.576 65.68H292.016ZM306.336 55.76H308.576C310.763 55.76 312.336 55.44 313.296 54.8C314.256 54.16 314.843 53.2 315.056 51.92C315.323 50.64 315.456 49.04 315.456 47.12V18.88C315.456 16.96 315.296 15.4133 314.976 14.24C314.71 13.0667 314.096 12.2133 313.136 11.68C312.176 11.1467 310.63 10.88 308.496 10.88H306.336V55.76Z" fill="#424242"/>
<path d="M336.434 65.68L348.674 0.879998H364.994L377.074 65.68H363.874L361.714 52H352.194L349.954 65.68H336.434ZM353.474 43.44H360.354L356.914 18.16L353.474 43.44Z" fill="#424242"/>
</svg>
