<svg width="24" height="24" viewBox="0 0 24 24" fill="none" xmlns="http://www.w3.org/2000/svg">
<g id="Phosphor Icons Regular / Planet">
<path id="Vector (Stroke)" fill-rule="evenodd" clip-rule="evenodd" d="M12 4.5C7.85786 4.5 4.5 7.85786 4.5 12C4.5 16.1421 7.85786 19.5 12 19.5C16.1421 19.5 19.5 16.1421 19.5 12C19.5 7.85786 16.1421 4.5 12 4.5ZM3 12C3 7.02944 7.02944 3 12 3C16.9706 3 21 7.02944 21 12C21 16.9706 16.9706 21 12 21C7.02944 21 3 16.9706 3 12Z" fill="#FF703E"/>
<path id="Vector (Stroke)_2" fill-rule="evenodd" clip-rule="evenodd" d="M20.5444 5.93547C19.7729 5.89051 18.7243 6.03132 17.4665 6.37641C17.0671 6.48601 16.6544 6.25104 16.5448 5.85159C16.4352 5.45213 16.6702 5.03947 17.0696 4.92987C18.4087 4.56247 19.6335 4.37984 20.6316 4.43801C21.5967 4.49425 22.5594 4.79349 23.0436 5.62136L23.0461 5.62571L23.0461 5.62572C23.4787 6.37682 23.3351 7.25346 22.9938 8.03467C22.645 8.83308 22.0251 9.69253 21.225 10.5606C19.6187 12.3037 17.165 14.2115 14.249 15.8934C11.3334 17.5752 8.4545 18.7462 6.14155 19.2661C4.98961 19.5251 3.93509 19.6325 3.06865 19.5355C2.22053 19.4405 1.38962 19.1265 0.953991 18.3769L0.952393 18.3741C0.473842 17.5425 0.697501 16.5576 1.13006 15.6951C1.57812 14.8016 2.34786 13.8312 3.3341 12.8546C3.62844 12.5631 4.1033 12.5655 4.39475 12.8598C4.6862 13.1541 4.68386 13.629 4.38953 13.9205C3.46327 14.8376 2.81738 15.6766 2.47091 16.3675C2.10996 17.0872 2.15888 17.4617 2.2517 17.6246C2.33714 17.7702 2.58369 17.9718 3.23554 18.0448C3.87116 18.116 4.74378 18.0429 5.81255 17.8027C7.941 17.3242 10.6777 16.2218 13.4996 14.5941C16.3211 12.9666 18.644 11.1479 20.122 9.5441C20.8642 8.73875 21.3634 8.01969 21.6193 7.43412C21.8813 6.83435 21.8298 6.52166 21.7475 6.37649C21.6491 6.21078 21.3453 5.98215 20.5444 5.93547Z" fill="#FF703E"/>
</g>
</svg>
