<svg width="30" height="30" viewBox="0 0 30 30" fill="none" xmlns="http://www.w3.org/2000/svg">
<g id="Phosphor Icons Regular / ShareNetwork">
<path id="Vector (Stroke)" fill-rule="evenodd" clip-rule="evenodd" d="M7.5 12.1875C5.9467 12.1875 4.6875 13.4467 4.6875 15C4.6875 16.5533 5.9467 17.8125 7.5 17.8125C9.0533 17.8125 10.3125 16.5533 10.3125 15C10.3125 13.4467 9.0533 12.1875 7.5 12.1875ZM2.8125 15C2.8125 12.4112 4.91117 10.3125 7.5 10.3125C10.0888 10.3125 12.1875 12.4112 12.1875 15C12.1875 17.5888 10.0888 19.6875 7.5 19.6875C4.91117 19.6875 2.8125 17.5888 2.8125 15Z" fill="#FF703E"/>
<path id="Vector (Stroke)_2" fill-rule="evenodd" clip-rule="evenodd" d="M20.625 20.625C19.0717 20.625 17.8125 21.8842 17.8125 23.4375C17.8125 24.9908 19.0717 26.25 20.625 26.25C22.1783 26.25 23.4375 24.9908 23.4375 23.4375C23.4375 21.8842 22.1783 20.625 20.625 20.625ZM15.9375 23.4375C15.9375 20.8487 18.0362 18.75 20.625 18.75C23.2138 18.75 25.3125 20.8487 25.3125 23.4375C25.3125 26.0263 23.2138 28.125 20.625 28.125C18.0362 28.125 15.9375 26.0263 15.9375 23.4375Z" fill="#FF703E"/>
<path id="Vector (Stroke)_3" fill-rule="evenodd" clip-rule="evenodd" d="M20.625 3.75C19.0717 3.75 17.8125 5.0092 17.8125 6.5625C17.8125 8.1158 19.0717 9.375 20.625 9.375C22.1783 9.375 23.4375 8.1158 23.4375 6.5625C23.4375 5.0092 22.1783 3.75 20.625 3.75ZM15.9375 6.5625C15.9375 3.97367 18.0362 1.875 20.625 1.875C23.2138 1.875 25.3125 3.97367 25.3125 6.5625C25.3125 9.15134 23.2138 11.25 20.625 11.25C18.0362 11.25 15.9375 9.15134 15.9375 6.5625Z" fill="#FF703E"/>
<path id="Vector (Stroke)_4" fill-rule="evenodd" clip-rule="evenodd" d="M18.2615 8.08313C18.5414 8.51872 18.4152 9.09874 17.9796 9.37865L11.1593 13.7615C10.7237 14.0414 10.1437 13.9152 9.86377 13.4796C9.58385 13.044 9.71005 12.464 10.1456 12.1841L16.9659 7.80127C17.4015 7.52135 17.9816 7.64755 18.2615 8.08313Z" fill="#FF703E"/>
<path id="Vector (Stroke)_5" fill-rule="evenodd" clip-rule="evenodd" d="M9.86377 16.5206C10.1437 16.0851 10.7237 15.9589 11.1593 16.2388L17.9796 20.6216C18.4152 20.9015 18.5414 21.4815 18.2615 21.9171C17.9816 22.3527 17.4015 22.4789 16.9659 22.199L10.1456 17.8162C9.71005 17.5362 9.58385 16.9562 9.86377 16.5206Z" fill="#FF703E"/>
</g>
</svg>
