<svg width="24" height="24" viewBox="0 0 24 24" fill="none" xmlns="http://www.w3.org/2000/svg">
<path id="Star 9" d="M11.0484 2.94694C11.4402 1.73372 11.636 1.12711 12 1.12711C12.364 1.12711 12.5598 1.73372 12.9516 2.94694L14.7763 8.59761C14.8842 8.93174 14.9382 9.09881 15.0697 9.19456C15.2013 9.29032 15.3768 9.29032 15.7279 9.29032L20.911 9.29032C22.1831 9.29032 22.8192 9.29032 22.9312 9.63633C23.0432 9.98233 22.5278 10.3551 21.4971 11.1006L17.089 14.2888C16.8049 14.4943 16.6628 14.597 16.6123 14.7515C16.5618 14.906 16.6157 15.0728 16.7235 15.4065L18.5606 21.0924C18.948 22.2916 19.1417 22.8911 18.8486 23.1043C18.5555 23.3175 18.0447 22.9485 17.0233 22.2104L12.5857 19.0038C12.3031 18.7996 12.1617 18.6975 12 18.6975C11.8383 18.6975 11.6969 18.7996 11.4143 19.0038L6.97667 22.2104C5.95525 22.9485 5.44455 23.3175 5.15141 23.1043C4.85827 22.8911 5.05199 22.2916 5.43942 21.0924L7.27651 15.4065C7.38432 15.0728 7.43822 14.906 7.38771 14.7515C7.33719 14.597 7.19512 14.4943 6.91099 14.2888L2.50294 11.1006C1.47217 10.3551 0.956788 9.98233 1.0688 9.63633C1.18081 9.29032 1.81687 9.29032 3.08899 9.29032L8.27207 9.29032C8.62319 9.29032 8.79875 9.29032 8.9303 9.19456C9.06184 9.09881 9.11579 8.93174 9.22369 8.59761L11.0484 2.94694Z" fill="#FFE350" stroke="#FFE350" stroke-linecap="round" stroke-linejoin="round"/>
</svg>
