<svg width="29" height="28" viewBox="0 0 29 28" fill="none" xmlns="http://www.w3.org/2000/svg">
<g id="Phosphor Icons Regular / ArrowCircleRight">
<path id="Vector (Stroke)" fill-rule="evenodd" clip-rule="evenodd" d="M14.5 4.375C9.18426 4.375 4.875 8.68426 4.875 14C4.875 19.3157 9.18426 23.625 14.5 23.625C19.8157 23.625 24.125 19.3157 24.125 14C24.125 8.68426 19.8157 4.375 14.5 4.375ZM3.125 14C3.125 7.71776 8.21776 2.625 14.5 2.625C20.7822 2.625 25.875 7.71776 25.875 14C25.875 20.2822 20.7822 25.375 14.5 25.375C8.21776 25.375 3.125 20.2822 3.125 14Z" fill="white"/>
<path id="Vector (Stroke)_2" fill-rule="evenodd" clip-rule="evenodd" d="M14.5453 9.67352C14.8871 9.33181 15.4411 9.33181 15.7828 9.67352L19.4906 13.3813C19.8323 13.723 19.8323 14.2771 19.4906 14.6188L15.7828 18.3266C15.4411 18.6683 14.8871 18.6683 14.5453 18.3266C14.2036 17.9849 14.2036 17.4309 14.5453 17.0891L17.6344 14L14.5453 10.911C14.2036 10.5692 14.2036 10.0152 14.5453 9.67352Z" fill="white"/>
<path id="Vector (Stroke)_3" fill-rule="evenodd" clip-rule="evenodd" d="M9.25 14C9.25 13.5168 9.64175 13.125 10.125 13.125H18.875C19.3582 13.125 19.75 13.5168 19.75 14C19.75 14.4832 19.3582 14.875 18.875 14.875H10.125C9.64175 14.875 9.25 14.4832 9.25 14Z" fill="white"/>
</g>
</svg>
