<svg width="15" height="14" viewBox="0 0 15 14" fill="none" xmlns="http://www.w3.org/2000/svg">
<g id="Phosphor Icons Regular / CheckCircle">
<path id="Vector (Stroke)" fill-rule="evenodd" clip-rule="evenodd" d="M9.78531 5.38551C9.95209 5.56034 9.94557 5.83727 9.77074 6.00405L6.56059 9.06655C6.39145 9.22792 6.12534 9.2278 5.95633 9.0663L4.35399 7.53505C4.1793 7.36811 4.17302 7.09117 4.33995 6.91649C4.50689 6.7418 4.78383 6.73552 4.95851 6.90245L6.25885 8.1451L9.16676 5.37095C9.34159 5.20416 9.61852 5.21068 9.78531 5.38551Z" fill="#FF703E"/>
<path id="Vector (Stroke)_2" fill-rule="evenodd" clip-rule="evenodd" d="M7.0625 2.1875C4.40463 2.1875 2.25 4.34213 2.25 7C2.25 9.65787 4.40463 11.8125 7.0625 11.8125C9.72037 11.8125 11.875 9.65787 11.875 7C11.875 4.34213 9.72037 2.1875 7.0625 2.1875ZM1.375 7C1.375 3.85888 3.92138 1.3125 7.0625 1.3125C10.2036 1.3125 12.75 3.85888 12.75 7C12.75 10.1411 10.2036 12.6875 7.0625 12.6875C3.92138 12.6875 1.375 10.1411 1.375 7Z" fill="#FF703E"/>
</g>
</svg>
