<svg width="25" height="24" viewBox="0 0 25 24" fill="none" xmlns="http://www.w3.org/2000/svg">
<g id="Phosphor Icons Regular / LinkSimple">
<path id="Vector (Stroke)" fill-rule="evenodd" clip-rule="evenodd" d="M16.2065 8.28178C16.4996 8.57446 16.5 9.04933 16.2073 9.34244L9.85103 15.7081C9.55836 16.0012 9.08348 16.0015 8.79037 15.7088C8.49726 15.4162 8.49691 14.9413 8.78959 14.6482L15.1458 8.28256C15.4385 7.98945 15.9134 7.9891 16.2065 8.28178Z" fill="#424242"/>
<path id="Vector (Stroke)_2" fill-rule="evenodd" clip-rule="evenodd" d="M8.25963 9.87592C8.55252 10.1688 8.55252 10.6437 8.25963 10.9366L5.60651 13.5897C4.90302 14.2932 4.50781 15.2473 4.50781 16.2422C4.50781 17.2371 4.90302 18.1912 5.60651 18.8947C6.30999 19.5982 7.26412 19.9934 8.25899 19.9934C8.7516 19.9934 9.23939 19.8963 9.6945 19.7078C10.1496 19.5193 10.5631 19.243 10.9115 18.8947L13.5646 16.2415C13.8575 15.9487 14.3324 15.9487 14.6253 16.2415C14.9181 16.5344 14.9181 17.0093 14.6253 17.3022L11.9721 19.9553C11.4845 20.4429 10.9056 20.8297 10.2685 21.0936C9.63142 21.3575 8.94858 21.4934 8.25899 21.4934C6.86629 21.4934 5.53063 20.9401 4.54585 19.9553C3.56106 18.9705 3.00781 17.6349 3.00781 16.2422C3.00781 14.8495 3.56106 13.5138 4.54585 12.529L7.19897 9.87592C7.49186 9.58303 7.96674 9.58303 8.25963 9.87592Z" fill="#424242"/>
<path id="Vector (Stroke)_3" fill-rule="evenodd" clip-rule="evenodd" d="M13.029 4.04463C14.0138 3.05984 15.3495 2.50659 16.7422 2.50659C18.1349 2.50659 19.4705 3.05984 20.4553 4.04463C21.4401 5.02941 21.9934 6.36507 21.9934 7.75777C21.9934 9.15047 21.4401 10.4861 20.4553 11.4709L17.8022 14.124C17.5093 14.4169 17.0344 14.4169 16.7415 14.124C16.4487 13.8311 16.4487 13.3563 16.7415 13.0634L19.3947 10.4103C20.0982 9.70677 20.4934 8.75264 20.4934 7.75777C20.4934 6.76289 20.0982 5.80877 19.3947 5.10529C18.6912 4.4018 17.7371 4.00659 16.7422 4.00659C15.7473 4.00659 14.7932 4.4018 14.0897 5.10529L11.4366 7.75841C11.1437 8.0513 10.6688 8.0513 10.3759 7.75841C10.083 7.46552 10.083 6.99064 10.3759 6.69775L13.029 4.04463Z" fill="#424242"/>
</g>
</svg>
