<svg width="25" height="24" viewBox="0 0 25 24" fill="none" xmlns="http://www.w3.org/2000/svg">
<g id="Phosphor Icons Regular / Smiley">
<path id="Vector (Stroke)" fill-rule="evenodd" clip-rule="evenodd" d="M12.5 3.75C7.94365 3.75 4.25 7.44365 4.25 12C4.25 16.5563 7.94365 20.25 12.5 20.25C17.0563 20.25 20.75 16.5563 20.75 12C20.75 7.44365 17.0563 3.75 12.5 3.75ZM2.75 12C2.75 6.61522 7.11522 2.25 12.5 2.25C17.8848 2.25 22.25 6.61522 22.25 12C22.25 17.3848 17.8848 21.75 12.5 21.75C7.11522 21.75 2.75 17.3848 2.75 12Z" fill="#424242"/>
<path id="Vector" d="M9.125 11.25C9.74632 11.25 10.25 10.7463 10.25 10.125C10.25 9.50368 9.74632 9 9.125 9C8.50368 9 8 9.50368 8 10.125C8 10.7463 8.50368 11.25 9.125 11.25Z" fill="#424242"/>
<path id="Vector_2" d="M15.875 11.25C16.4963 11.25 17 10.7463 17 10.125C17 9.50368 16.4963 9 15.875 9C15.2537 9 14.75 9.50368 14.75 10.125C14.75 10.7463 15.2537 11.25 15.875 11.25Z" fill="#424242"/>
<path id="Vector (Stroke)_2" fill-rule="evenodd" clip-rule="evenodd" d="M8.22518 13.6014C8.58342 13.3934 9.0424 13.5153 9.25033 13.8735C9.58087 14.443 10.0552 14.9156 10.6258 15.2442C11.1964 15.5727 11.8433 15.7456 12.5017 15.7456C13.1601 15.7456 13.807 15.5727 14.3776 15.2442C14.9482 14.9156 15.4225 14.443 15.753 13.8735C15.961 13.5153 16.42 13.3934 16.7782 13.6014C17.1364 13.8093 17.2583 14.2683 17.0503 14.6265C16.5879 15.4232 15.9244 16.0844 15.1261 16.5441C14.3278 17.0037 13.4228 17.2456 12.5017 17.2456C11.5805 17.2456 10.6755 17.0037 9.87728 16.5441C9.07901 16.0844 8.41546 15.4232 7.95304 14.6265C7.7451 14.2683 7.86694 13.8093 8.22518 13.6014Z" fill="#424242"/>
</g>
</svg>
