<svg width="24" height="25" viewBox="0 0 24 25" fill="none" xmlns="http://www.w3.org/2000/svg">
<g id="bathroom-svgrepo-com 1">
<path id="Vector" d="M21.75 13.625H3.75V5.1875C3.74913 4.86975 3.81129 4.55498 3.9329 4.26142C4.0545 3.96786 4.23312 3.70133 4.45842 3.47727L4.47717 3.45852C4.83026 3.10594 5.2836 2.87098 5.77524 2.78572C6.26688 2.70046 6.77286 2.76907 7.22405 2.98217C6.79794 3.69064 6.62083 4.52119 6.72086 5.34185C6.82089 6.16251 7.19233 6.9262 7.77614 7.51156L8.28947 8.02489L7.34461 8.9698L8.4052 10.0304L9.35006 9.08553L14.5855 3.8502L15.5303 2.90534L14.4697 1.8447L13.5248 2.78956L13.0115 2.27623C12.3969 1.66336 11.5867 1.28556 10.7222 1.20867C9.85764 1.13178 8.99353 1.36068 8.28042 1.85548C7.52846 1.3806 6.63734 1.17559 5.75346 1.27413C4.86958 1.37267 4.04549 1.7689 3.41658 2.39773L3.39783 2.41648C3.03279 2.77953 2.74338 3.21137 2.54635 3.68702C2.34933 4.16266 2.2486 4.67266 2.25 5.1875V13.625H0.75V15.125H2.25V16.5641C2.24997 16.685 2.26947 16.8051 2.30775 16.9198L3.70312 21.1057C3.77759 21.3298 3.92078 21.5248 4.11235 21.6629C4.30392 21.801 4.53413 21.8752 4.77028 21.875H5.37497L4.82812 23.75H6.39061L6.9375 21.875H16.6922L17.2547 23.75H18.8203L18.2578 21.875H19.2295C19.4657 21.8752 19.696 21.801 19.8876 21.6629C20.0792 21.5248 20.2224 21.3299 20.2969 21.1057L21.6922 16.9198C21.7304 16.8051 21.75 16.685 21.75 16.5641V15.125H23.25V13.625H21.75ZM8.83687 3.33687C9.25012 2.92453 9.81007 2.69295 10.3939 2.69295C10.9776 2.69295 11.5376 2.92453 11.9508 3.33687L12.4641 3.8502L9.3502 6.96406L8.83687 6.45083C8.42455 6.03757 8.19298 5.47763 8.19298 4.89385C8.19298 4.31007 8.42455 3.75013 8.83687 3.33687ZM20.25 16.5031L18.9594 20.375H5.04056L3.75 16.5031V15.125H20.25V16.5031Z" fill="#FF703E"/>
</g>
</svg>
