<svg width="24" height="25" viewBox="0 0 24 25" fill="none" xmlns="http://www.w3.org/2000/svg">
<g id="beds-sleep-svgrepo-com 1" clip-path="url(#clip0_590_6332)">
<g id="Group">
<g id="Group_2">
<path id="Vector" d="M20.5251 8.14268V11.0266H9.34211C9.0191 9.6611 7.79078 8.64171 6.328 8.64171H3.47494V5.13086H0V19.869H3.47494V18.1229H20.5251V19.869H24V8.14268H20.5251ZM2.04914 8.64171V11.0266V12.4524V18.1229V18.4432H1.4258V6.55671H2.0491V8.64171H2.04914ZM3.47494 10.0675H6.32804C6.99512 10.0675 7.57225 10.4602 7.84033 11.0266H3.47494V10.0675ZM20.5251 16.6971H3.47494V15.7464H20.5251V16.6971H20.5251ZM20.5251 14.3206H3.47494V12.4524H9.42583H20.5251V14.3206H20.5251ZM22.5742 18.4432H21.951V18.1229V11.0266V9.56843H22.5742V18.4432Z" fill="#FF703E"/>
</g>
</g>
</g>
<defs>
<clipPath id="clip0_590_6332">
<rect width="24" height="24" fill="white" transform="translate(0 0.5)"/>
</clipPath>
</defs>
</svg>
