<svg width="24" height="25" viewBox="0 0 24 25" fill="none" xmlns="http://www.w3.org/2000/svg">
<g id="Phosphor Icons Regular / FrameCorners">
<path id="Vector (Stroke)" fill-rule="evenodd" clip-rule="evenodd" d="M14.25 8C14.25 7.58579 14.5858 7.25 15 7.25H18C18.4142 7.25 18.75 7.58579 18.75 8V11C18.75 11.4142 18.4142 11.75 18 11.75C17.5858 11.75 17.25 11.4142 17.25 11V8.75H15C14.5858 8.75 14.25 8.41421 14.25 8Z" fill="#FF703E"/>
<path id="Vector (Stroke)_2" fill-rule="evenodd" clip-rule="evenodd" d="M6 13.25C6.41421 13.25 6.75 13.5858 6.75 14V16.25H9C9.41421 16.25 9.75 16.5858 9.75 17C9.75 17.4142 9.41421 17.75 9 17.75H6C5.58579 17.75 5.25 17.4142 5.25 17V14C5.25 13.5858 5.58579 13.25 6 13.25Z" fill="#FF703E"/>
<path id="Vector (Stroke)_3" fill-rule="evenodd" clip-rule="evenodd" d="M2.25 5.75C2.25 4.92157 2.92157 4.25 3.75 4.25H20.25C21.0784 4.25 21.75 4.92157 21.75 5.75V19.25C21.75 20.0784 21.0784 20.75 20.25 20.75H3.75C2.92157 20.75 2.25 20.0784 2.25 19.25V5.75ZM20.25 5.75H3.75V19.25H20.25V5.75Z" fill="#FF703E"/>
</g>
</svg>
