<svg width="20" height="20" viewBox="0 0 20 20" fill="none" xmlns="http://www.w3.org/2000/svg">
<g id="Group 938">
<path id="Rectangle 951" d="M3 19V16M16.5 19V16M2.5 9V9C1.67157 9 1 9.67028 1 10.4987C1 10.8915 1 11.3839 1 12C1 12.8271 1.1004 13.5316 1.23757 14.1082C1.40101 14.7952 1.48272 15.1387 2.02783 15.5694C2.57295 16 3.06521 16 4.04974 16H15.3377C16.6735 16 17.3414 16 17.8894 15.5613C18.4374 15.1225 18.5611 14.5705 18.8087 13.4664C18.9216 12.9629 19 12.4509 19 12C19 11.4605 19 10.9457 19 10.4996C19 9.67122 18.3284 9 17.5 9V9M2.5 9L3.74254 4.02986C4.10632 2.57474 4.28821 1.84718 4.83073 1.42359C5.37325 1 6.1232 1 7.62311 1H12.3769C13.8768 1 14.6267 1 15.1693 1.42359C15.7118 1.84718 15.8937 2.57474 16.2575 4.02986L17.5 9M2.5 9H17.5" stroke="#FF703E" stroke-width="2" stroke-linecap="round" stroke-linejoin="round"/>
<path id="Ellipse 133" d="M5.5 12C5.5 12.2761 5.27614 12.5 5 12.5C4.72386 12.5 4.5 12.2761 4.5 12C4.5 11.7239 4.72386 11.5 5 11.5C5.27614 11.5 5.5 11.7239 5.5 12ZM15.5 12C15.5 12.2761 15.2761 12.5 15 12.5C14.7239 12.5 14.5 12.2761 14.5 12C14.5 11.7239 14.7239 11.5 15 11.5C15.2761 11.5 15.5 11.7239 15.5 12Z" fill="white" stroke="#FF703E"/>
</g>
</svg>
