<svg width="25" height="24" viewBox="0 0 25 24" fill="none" xmlns="http://www.w3.org/2000/svg">
<g id="Phosphor Icons Fill / LinkSimple">
<path id="Vector" d="M15.155 8.28748L8.78934 14.6531C8.64908 14.7937 8.57031 14.9842 8.57031 15.1828C8.57031 15.3814 8.64908 15.5719 8.78934 15.7125C8.93112 15.8505 9.12117 15.9277 9.31903 15.9277C9.51689 15.9277 9.70694 15.8505 9.84872 15.7125L16.2143 9.34685C16.3436 9.20418 16.4131 9.01727 16.4083 8.8248C16.4036 8.63234 16.325 8.44907 16.1889 8.31293C16.0527 8.1768 15.8695 8.09823 15.677 8.09349C15.4845 8.08875 15.2976 8.15821 15.155 8.28748Z" fill="#FF703E"/>
<path id="Vector_2" d="M13.5604 16.2469L10.9073 18.8906C10.5611 19.2412 10.1487 19.5196 9.69408 19.7096C9.23945 19.8996 8.75161 19.9975 8.25886 19.9975C7.76612 19.9975 7.27828 19.8996 6.82364 19.7096C6.36901 19.5196 5.95663 19.2412 5.61042 18.8906C4.90913 18.1876 4.51528 17.2352 4.51528 16.2422C4.51528 15.2492 4.90913 14.2967 5.61042 13.5937L8.25417 10.9406C8.38344 10.7979 8.4529 10.611 8.44816 10.4186C8.44342 10.2261 8.36485 10.0428 8.22872 9.90668C8.09258 9.77055 7.90931 9.69198 7.71685 9.68724C7.52438 9.6825 7.33747 9.75196 7.1948 9.88123L4.54167 12.5344C3.55706 13.519 3.00391 14.8544 3.00391 16.2469C3.00391 17.6393 3.55706 18.9747 4.54167 19.9593C5.52629 20.944 6.86172 21.4971 8.25417 21.4971C9.64663 21.4971 10.9821 20.944 11.9667 19.9593L14.6198 17.3062C14.7601 17.1656 14.8388 16.9751 14.8388 16.7765C14.8388 16.5779 14.7601 16.3875 14.6198 16.2469C14.5508 16.1763 14.4684 16.1202 14.3775 16.0819C14.2865 16.0436 14.1888 16.0239 14.0901 16.0239C13.9914 16.0239 13.8937 16.0436 13.8028 16.0819C13.7118 16.1202 13.6294 16.1763 13.5604 16.2469Z" fill="#FF703E"/>
<path id="Vector_3" d="M20.4598 4.04056C19.9723 3.553 19.3935 3.16624 18.7566 2.90237C18.1196 2.6385 17.4368 2.50269 16.7473 2.50269C16.0579 2.50269 15.3751 2.6385 14.7381 2.90237C14.1011 3.16624 13.5224 3.553 13.0348 4.04056L10.3817 6.69369C10.2524 6.83636 10.183 7.02327 10.1877 7.21574C10.1925 7.4082 10.271 7.59147 10.4072 7.72761C10.5433 7.86374 10.7266 7.94231 10.919 7.94705C11.1115 7.95179 11.2984 7.88233 11.4411 7.75306L14.0942 5.10931C14.4404 4.75868 14.8528 4.48029 15.3074 4.29028C15.7621 4.10027 16.2499 4.00242 16.7427 4.00242C17.2354 4.00242 17.7232 4.10027 18.1779 4.29028C18.6325 4.48029 19.0449 4.75868 19.3911 5.10931C20.0924 5.81231 20.4862 6.76476 20.4862 7.75775C20.4862 8.75074 20.0924 9.70319 19.3911 10.4062L16.7473 13.0593C16.6768 13.1283 16.6207 13.2107 16.5824 13.3016C16.5441 13.3926 16.5244 13.4903 16.5244 13.589C16.5244 13.6877 16.5441 13.7854 16.5824 13.8764C16.6207 13.9673 16.6768 14.0497 16.7473 14.1187C16.8149 14.1899 16.8964 14.2466 16.9866 14.2853C17.0769 14.324 17.1741 14.3439 17.2723 14.3437C17.3719 14.3435 17.4704 14.3235 17.5621 14.2849C17.6539 14.2463 17.737 14.1898 17.8067 14.1187L20.4598 11.4656C21.4422 10.4798 21.9938 9.14478 21.9938 7.75306C21.9938 6.36134 21.4422 5.02636 20.4598 4.04056Z" fill="#FF703E"/>
</g>
</svg>
