<svg width="24" height="25" viewBox="0 0 24 25" fill="none" xmlns="http://www.w3.org/2000/svg">
<g id="Phosphor Icons Regular / PhoneCall">
<path id="Vector (Stroke)" fill-rule="evenodd" clip-rule="evenodd" d="M14.2192 3.88928C14.3265 3.48922 14.7379 3.25195 15.1379 3.35932C16.5371 3.73483 17.8129 4.47176 18.8373 5.49614C19.8617 6.52053 20.5987 7.79634 20.9742 9.19553C21.0815 9.59559 20.8443 10.0069 20.4442 10.1143C20.0441 10.2217 19.6328 9.98439 19.5254 9.58434C19.2181 8.43926 18.615 7.39515 17.7767 6.5568C16.9383 5.71846 15.8942 5.11536 14.7491 4.80805C14.3491 4.70068 14.1118 4.28934 14.2192 3.88928Z" fill="#FF703E"/>
<path id="Vector (Stroke)_2" fill-rule="evenodd" clip-rule="evenodd" d="M13.4404 6.78765C13.5467 6.38732 13.9574 6.14897 14.3577 6.25529C15.2506 6.49243 16.065 6.96139 16.7182 7.61465C17.3715 8.26791 17.8405 9.08226 18.0776 9.97515C18.1839 10.3755 17.9456 10.7862 17.5452 10.8925C17.1449 10.9989 16.7342 10.7605 16.6279 10.3602C16.4586 9.72285 16.1239 9.14159 15.6576 8.67531C15.1913 8.20903 14.61 7.8743 13.9727 7.70504C13.5724 7.59872 13.334 7.18799 13.4404 6.78765Z" fill="#FF703E"/>
<path id="Vector (Stroke)_3" fill-rule="evenodd" clip-rule="evenodd" d="M7.58281 2.62686C7.90697 2.58528 8.23581 2.65138 8.51873 2.81499C8.80038 2.97788 9.02097 3.22842 9.14689 3.52833L11.0285 7.91888C11.0288 7.91951 11.0291 7.92013 11.0294 7.92076C11.1268 8.1459 11.1675 8.39151 11.1479 8.63606C11.1283 8.88129 11.0487 9.11793 10.916 9.32513L10.9111 9.33285L9.34841 11.7095C10.0458 13.148 11.209 14.3084 12.6491 15.0023L12.6521 15.0002L14.9941 13.4359C15.2019 13.2955 15.4418 13.2099 15.6915 13.1869C15.9413 13.1639 16.1927 13.2043 16.4227 13.3043C16.4237 13.3047 16.4246 13.3051 16.4255 13.3055L20.8053 15.1865C21.1051 15.3125 21.3555 15.533 21.5183 15.8146C21.6819 16.0975 21.748 16.4263 21.7064 16.7505C21.5442 18.0168 20.9261 19.1805 19.9678 20.024C19.0096 20.8675 17.7768 21.333 16.5002 21.3333C12.9197 21.3333 9.4858 19.911 6.95406 17.3792C4.42232 14.8475 3 11.4137 3 7.83328C3.00029 6.55666 3.46573 5.3237 4.30925 4.36544C5.15271 3.40724 6.31663 2.78915 7.58281 2.62686ZM8.67187 12.0333L7.99536 12.357C7.88459 12.1256 7.83505 11.8696 7.85147 11.6136C7.86788 11.3575 7.9497 11.11 8.08911 10.8945L8.09205 10.89L9.65268 8.51638L9.65126 8.5131L7.76689 4.11622C6.86505 4.23345 6.03617 4.67379 5.43518 5.35654C4.8327 6.04097 4.50025 6.92147 4.5 7.83328M8.67187 12.0333L7.99685 12.3602C8.84248 14.1064 10.2545 15.5149 12.003 16.356L12.0072 16.358C12.2426 16.4695 12.503 16.5177 12.7627 16.498C13.0217 16.4783 13.2712 16.3917 13.4867 16.2466C13.4873 16.2463 13.4879 16.2459 13.4884 16.2455L15.8291 14.6819L20.2165 16.5662L20.2177 16.5667C20.1005 17.4685 19.6595 18.2971 18.9767 18.8981C18.2923 19.5006 17.4118 19.833 16.5 19.8333M4.5 7.83328C4.50004 11.0158 5.76432 14.0682 8.01472 16.3186C10.2651 18.569 13.3175 19.8332 16.5 19.8333" fill="#FF703E"/>
</g>
</svg>
