<svg width="32" height="32" viewBox="0 0 32 32" fill="none" xmlns="http://www.w3.org/2000/svg">
<g id="Fether Icons /x-circle">
<g clip-path="url(#clip0_1022_26691)">
<rect width="32" height="32" rx="16" fill="white"/>
<path id="Vector (Stroke)" fill-rule="evenodd" clip-rule="evenodd" d="M16 2.90909C8.77009 2.90909 2.90909 8.77009 2.90909 16C2.90909 23.2299 8.77009 29.0909 16 29.0909C23.2299 29.0909 29.0909 23.2299 29.0909 16C29.0909 8.77009 23.2299 2.90909 16 2.90909ZM0 16C0 7.16344 7.16344 0 16 0C24.8366 0 32 7.16344 32 16C32 24.8366 24.8366 32 16 32C7.16344 32 0 24.8366 0 16Z" fill="#FF703E"/>
<path id="Vector (Stroke)_2" fill-rule="evenodd" clip-rule="evenodd" d="M20.9441 11.0572C21.4648 11.5778 21.4648 12.4221 20.9441 12.9428L12.9441 20.9428C12.4234 21.4635 11.5792 21.4635 11.0585 20.9428C10.5378 20.4221 10.5378 19.5778 11.0585 19.0572L19.0585 11.0572C19.5792 10.5365 20.4234 10.5365 20.9441 11.0572Z" fill="#FF703E"/>
<path id="Vector (Stroke)_3" fill-rule="evenodd" clip-rule="evenodd" d="M11.0585 11.0572C11.5792 10.5365 12.4234 10.5365 12.9441 11.0572L20.9441 19.0572C21.4648 19.5778 21.4648 20.4221 20.9441 20.9428C20.4234 21.4635 19.5792 21.4635 19.0585 20.9428L11.0585 12.9428C10.5378 12.4221 10.5378 11.5778 11.0585 11.0572Z" fill="#FF703E"/>
</g>
</g>
<defs>
<clipPath id="clip0_1022_26691">
<rect width="32" height="32" rx="16" fill="white"/>
</clipPath>
</defs>
</svg>
