<svg width="17" height="20" viewBox="0 0 17 20" fill="none" xmlns="http://www.w3.org/2000/svg">
<g id="Group 36">
<path id="Rectangle 40" d="M16 19L16 17.55C16 16.5734 16 16.0851 15.8874 15.6857C15.604 14.6811 14.8189 13.896 13.8143 13.6126C13.415 13.5 12.9266 13.5 11.95 13.5H5.05C4.07337 13.5 3.58505 13.5 3.18568 13.6126C2.18108 13.896 1.39596 14.6811 1.11263 15.6857C1 16.085 0.999999 16.5734 0.999999 17.55L0.999999 19M13.2 5.06012C13.2 7.30489 11.3196 9.12464 9 9.12464C6.6804 9.12464 4.8 7.30489 4.8 5.06012C4.8 2.81535 6.6804 0.995605 9 0.995605C11.3196 0.995605 13.2 2.81535 13.2 5.06012Z" stroke="white" stroke-linecap="round" stroke-linejoin="round"/>
</g>
</svg>
