<svg width="25" height="24" viewBox="0 0 25 24" fill="none" xmlns="http://www.w3.org/2000/svg">
<g id="Phosphor Icons Regular / SignIn">
<path id="Vector (Stroke)" fill-rule="evenodd" clip-rule="evenodd" d="M8.78217 7.53217C9.07506 7.23928 9.54994 7.23928 9.84283 7.53217L13.7803 11.4697C14.0732 11.7626 14.0732 12.2374 13.7803 12.5303L9.84283 16.4678C9.54994 16.7607 9.07506 16.7607 8.78217 16.4678C8.48928 16.1749 8.48928 15.7001 8.78217 15.4072L12.1893 12L8.78217 8.59283C8.48928 8.29994 8.48928 7.82506 8.78217 7.53217Z" fill="white"/>
<path id="Vector (Stroke)_2" fill-rule="evenodd" clip-rule="evenodd" d="M2 12C2 11.5858 2.33579 11.25 2.75 11.25H13.25C13.6642 11.25 14 11.5858 14 12C14 12.4142 13.6642 12.75 13.25 12.75H2.75C2.33579 12.75 2 12.4142 2 12Z" fill="white"/>
<path id="Vector (Stroke)_3" fill-rule="evenodd" clip-rule="evenodd" d="M12.5 3.75C12.5 3.33579 12.8358 3 13.25 3H18.5C18.8978 3 19.2794 3.15804 19.5607 3.43934C19.842 3.72065 20 4.10218 20 4.5V19.5C20 19.8978 19.842 20.2794 19.5607 20.5607C19.2794 20.842 18.8978 21 18.5 21H13.25C12.8358 21 12.5 20.6642 12.5 20.25C12.5 19.8358 12.8358 19.5 13.25 19.5H18.5L18.5 4.5L13.25 4.5C12.8358 4.5 12.5 4.16421 12.5 3.75Z" fill="white"/>
</g>
</svg>
