<svg width="24" height="24" viewBox="0 0 24 24" fill="none" xmlns="http://www.w3.org/2000/svg">
<path d="M15.7501 21.0001C15.7501 21.199 15.671 21.3897 15.5304 21.5304C15.3897 21.671 15.199 21.7501 15.0001 21.7501H9.75006C9.55115 21.7501 9.36038 21.671 9.21973 21.5304C9.07908 21.3897 9.00006 21.199 9.00006 21.0001C9.00006 20.8011 9.07908 20.6104 9.21973 20.4697C9.36038 20.3291 9.55115 20.2501 9.75006 20.2501H15.0001C15.199 20.2501 15.3897 20.3291 15.5304 20.4697C15.671 20.6104 15.7501 20.8011 15.7501 21.0001ZM12.0001 18.0001C12.0001 17.8011 11.921 17.6104 11.7804 17.4697C11.6397 17.3291 11.449 17.2501 11.2501 17.2501H6.75006C6.55115 17.2501 6.36038 17.3291 6.21973 17.4697C6.07908 17.6104 6.00006 17.8011 6.00006 18.0001C6.00006 18.199 6.07908 18.3897 6.21973 18.5304C6.36038 18.671 6.55115 18.7501 6.75006 18.7501H11.2501C11.449 18.7501 11.6397 18.671 11.7804 18.5304C11.921 18.3897 12.0001 18.199 12.0001 18.0001ZM17.2501 17.2501H15.0001C14.8011 17.2501 14.6104 17.3291 14.4697 17.4697C14.3291 17.6104 14.2501 17.8011 14.2501 18.0001C14.2501 18.199 14.3291 18.3897 14.4697 18.5304C14.6104 18.671 14.8011 18.7501 15.0001 18.7501H17.2501C17.449 18.7501 17.6397 18.671 17.7804 18.5304C17.921 18.3897 18.0001 18.199 18.0001 18.0001C18.0001 17.8011 17.921 17.6104 17.7804 17.4697C17.6397 17.3291 17.449 17.2501 17.2501 17.2501ZM14.9344 1.50943C13.4415 1.44508 11.966 1.85115 10.7163 2.67032C9.46648 3.48949 8.50546 4.68042 7.96881 6.07505C7.66208 6.88062 7.50329 7.73494 7.50006 8.59693C7.5012 8.78948 7.4309 8.97561 7.30276 9.11934C7.17461 9.26307 6.99773 9.35418 6.80631 9.37505C6.70319 9.38281 6.59959 9.36916 6.502 9.33495C6.40441 9.30075 6.31495 9.24674 6.23923 9.1763C6.16352 9.10587 6.10318 9.02054 6.06203 8.92568C6.02087 8.83081 5.99977 8.72846 6.00006 8.62505C5.99819 7.95864 6.07688 7.29445 6.23444 6.64693C6.25023 6.58298 6.2489 6.51599 6.23058 6.45272C6.21226 6.38945 6.17759 6.33212 6.13007 6.2865C6.08255 6.24088 6.02386 6.20858 5.95989 6.19286C5.89592 6.17713 5.82894 6.17854 5.76569 6.19693C4.7477 6.4925 3.8538 7.11182 3.21941 7.96106C2.58502 8.81029 2.24471 9.84316 2.25006 10.9032C2.26881 13.5938 4.50944 15.7501 7.20006 15.7501H14.6251C16.4788 15.7365 18.2543 15.0009 19.5746 13.6995C20.8948 12.3981 21.6559 10.6334 21.6961 8.78C21.7364 6.92661 21.0527 5.1305 19.7902 3.77301C18.5277 2.41551 16.7859 1.60352 14.9344 1.50943Z" fill="#FF703E"/>
</svg>
