<svg width="24" height="24" viewBox="0 0 24 24" fill="none" xmlns="http://www.w3.org/2000/svg">
<path d="M15.0844 19.1626L12.6282 22.9126C12.5585 23.0154 12.465 23.0998 12.3556 23.1585C12.2462 23.2173 12.1242 23.2487 12 23.2501C11.8645 23.2504 11.7314 23.2139 11.6149 23.1447C11.4984 23.0754 11.4029 22.9758 11.3384 22.8566C11.274 22.7373 11.2431 22.6029 11.249 22.4674C11.2549 22.332 11.2974 22.2008 11.3719 22.0876L13.8375 18.3376C13.8875 18.2468 13.9558 18.1674 14.038 18.1044C14.1202 18.0413 14.2146 17.996 14.3152 17.9713C14.4158 17.9465 14.5204 17.9429 14.6225 17.9606C14.7246 17.9782 14.8219 18.0169 14.9083 18.0741C14.9947 18.1312 15.0683 18.2057 15.1245 18.2927C15.1807 18.3797 15.2182 18.4774 15.2348 18.5797C15.2513 18.682 15.2465 18.7866 15.2206 18.8869C15.1948 18.9872 15.1484 19.0811 15.0844 19.1626ZM14.9344 1.50943C13.4415 1.44508 11.966 1.85115 10.7162 2.67032C9.46646 3.48949 8.50544 4.68042 7.96879 6.07505C7.65882 6.87971 7.49991 7.73463 7.50004 8.59693C7.50118 8.78948 7.43088 8.97561 7.30274 9.11934C7.17459 9.26307 6.99771 9.35418 6.80629 9.37505C6.70317 9.38281 6.59957 9.36916 6.50198 9.33495C6.40439 9.30075 6.31493 9.24674 6.23921 9.1763C6.1635 9.10587 6.10316 9.02054 6.06201 8.92568C6.02085 8.83081 5.99975 8.72846 6.00004 8.62505C5.9981 7.95918 6.0736 7.29535 6.22504 6.64693C6.24084 6.58298 6.2395 6.51599 6.22118 6.45272C6.20286 6.38945 6.1682 6.33212 6.12068 6.2865C6.07316 6.24088 6.01446 6.20858 5.95049 6.19286C5.88653 6.17713 5.81955 6.17854 5.75629 6.19693C4.74085 6.49556 3.84989 7.11596 3.21753 7.96474C2.58517 8.81352 2.24564 9.84474 2.25004 10.9032C2.26879 13.5938 4.50942 15.7501 7.20004 15.7501H10.8188L8.64379 19.0688C8.56504 19.1809 8.51847 19.3123 8.50914 19.449C8.49981 19.5856 8.52807 19.7222 8.59086 19.8439C8.65365 19.9656 8.74857 20.0678 8.86533 20.1394C8.98208 20.211 9.11621 20.2493 9.25317 20.2501C9.37765 20.2503 9.50025 20.2196 9.6099 20.1607C9.71956 20.1018 9.81283 20.0165 9.88129 19.9126L12.6188 15.7501H14.625C16.4788 15.7365 18.2543 15.0009 19.5745 13.6995C20.8948 12.3981 21.6558 10.6334 21.6961 8.78C21.7364 6.92661 21.0527 5.1305 19.7902 3.77301C18.5277 2.41551 16.7859 1.60352 14.9344 1.50943Z" fill="#FF703E"/>
</svg>
