<svg width="24" height="24" viewBox="0 0 24 24" fill="none" xmlns="http://www.w3.org/2000/svg">
<path d="M16.5 18.3751C16.5 18.5976 16.4341 18.8151 16.3104 19.0001C16.1868 19.1851 16.0111 19.3293 15.8056 19.4144C15.6 19.4996 15.3738 19.5218 15.1556 19.4784C14.9373 19.435 14.7369 19.3279 14.5795 19.1705C14.4222 19.0132 14.3151 18.8128 14.2717 18.5945C14.2283 18.3763 14.2505 18.1501 14.3357 17.9445C14.4208 17.739 14.565 17.5633 14.75 17.4396C14.935 17.316 15.1525 17.2501 15.375 17.2501C15.6734 17.2501 15.9596 17.3686 16.1705 17.5796C16.3815 17.7905 16.5 18.0767 16.5 18.3751ZM7.12504 17.2501C6.90254 17.2501 6.68503 17.316 6.50003 17.4396C6.31502 17.5633 6.17083 17.739 6.08568 17.9445C6.00053 18.1501 5.97825 18.3763 6.02166 18.5945C6.06507 18.8128 6.17221 19.0132 6.32955 19.1705C6.48688 19.3279 6.68734 19.435 6.90556 19.4784C7.12379 19.5218 7.34999 19.4996 7.55556 19.4144C7.76113 19.3293 7.93683 19.1851 8.06045 19.0001C8.18406 18.8151 8.25004 18.5976 8.25004 18.3751C8.25004 18.0767 8.13152 17.7905 7.92054 17.5796C7.70956 17.3686 7.42341 17.2501 7.12504 17.2501ZM10.875 18.7501C10.6525 18.7501 10.435 18.816 10.25 18.9396C10.065 19.0633 9.92083 19.239 9.83568 19.4445C9.75053 19.6501 9.72825 19.8763 9.77166 20.0945C9.81507 20.3128 9.92221 20.5132 10.0795 20.6705C10.2369 20.8279 10.4373 20.935 10.6556 20.9784C10.8738 21.0218 11.1 20.9996 11.3056 20.9144C11.5111 20.8293 11.6868 20.6851 11.8104 20.5001C11.9341 20.3151 12 20.0976 12 19.8751C12 19.5767 11.8815 19.2905 11.6705 19.0796C11.4596 18.8686 11.1734 18.7501 10.875 18.7501ZM6.37504 21.0001C6.15254 21.0001 5.93503 21.066 5.75003 21.1896C5.56502 21.3133 5.42083 21.489 5.33568 21.6945C5.25053 21.9001 5.22825 22.1263 5.27166 22.3445C5.31507 22.5628 5.42221 22.7632 5.57955 22.9205C5.73688 23.0779 5.93734 23.185 6.15557 23.2284C6.37379 23.2718 6.59999 23.2496 6.80556 23.1644C7.01113 23.0793 7.18683 22.9351 7.31045 22.7501C7.43406 22.5651 7.50004 22.3476 7.50004 22.1251C7.50004 21.8267 7.38152 21.5405 7.17054 21.3296C6.95956 21.1186 6.67341 21.0001 6.37504 21.0001ZM14.625 21.0001C14.4025 21.0001 14.185 21.066 14 21.1896C13.815 21.3133 13.6708 21.489 13.5857 21.6945C13.5005 21.9001 13.4782 22.1263 13.5217 22.3445C13.5651 22.5628 13.6722 22.7632 13.8295 22.9205C13.9869 23.0779 14.1873 23.185 14.4056 23.2284C14.6238 23.2718 14.85 23.2496 15.0556 23.1644C15.2611 23.0793 15.4368 22.9351 15.5604 22.7501C15.6841 22.5651 15.75 22.3476 15.75 22.1251C15.75 21.8267 15.6315 21.5405 15.4205 21.3296C15.2096 21.1186 14.9234 21.0001 14.625 21.0001ZM14.9344 1.50943C13.4415 1.44508 11.966 1.85115 10.7162 2.67032C9.46646 3.48949 8.50544 4.68042 7.96879 6.07505C7.65882 6.87971 7.49991 7.73463 7.50004 8.59693C7.50118 8.78948 7.43088 8.97561 7.30274 9.11934C7.17459 9.26307 6.99771 9.35418 6.80629 9.37505C6.70317 9.38281 6.59957 9.36916 6.50198 9.33495C6.40439 9.30075 6.31493 9.24674 6.23921 9.1763C6.1635 9.10587 6.10316 9.02054 6.06201 8.92568C6.02085 8.83081 5.99975 8.72846 6.00004 8.62505C5.9981 7.95918 6.0736 7.29535 6.22504 6.64693C6.24084 6.58298 6.2395 6.51599 6.22118 6.45272C6.20286 6.38945 6.1682 6.33212 6.12068 6.2865C6.07316 6.24088 6.01446 6.20858 5.95049 6.19286C5.88653 6.17713 5.81955 6.17854 5.75629 6.19693C4.74085 6.49556 3.84989 7.11596 3.21753 7.96474C2.58517 8.81352 2.24564 9.84474 2.25004 10.9032C2.26879 13.5938 4.50942 15.7501 7.20004 15.7501H14.625C16.4788 15.7365 18.2543 15.0009 19.5745 13.6995C20.8948 12.3981 21.6558 10.6334 21.6961 8.78C21.7364 6.92661 21.0527 5.1305 19.7902 3.77301C18.5277 2.41551 16.7859 1.60352 14.9344 1.50943Z" fill="#FF703E"/>
</svg>
