<svg width="24" height="24" viewBox="0 0 24 24" fill="none" xmlns="http://www.w3.org/2000/svg">
<path fill-rule="evenodd" clip-rule="evenodd" d="M12.6277 14.3733C12.9738 14.6008 13.0699 15.0659 12.8423 15.412L11.1407 18H14.4656C14.7414 18 14.9949 18.1513 15.1258 18.394C15.2566 18.6367 15.2438 18.9316 15.0923 19.162L12.6267 22.912C12.3991 23.2581 11.9341 23.3542 11.588 23.1266C11.2419 22.8991 11.1458 22.434 11.3733 22.0879L13.0749 19.5H9.75C9.47426 19.5 9.22076 19.3487 9.08988 19.106C8.95899 18.8633 8.97184 18.5683 9.12332 18.3379L11.5889 14.5879C11.8165 14.2418 12.2816 14.1457 12.6277 14.3733Z" fill="#FF703E"/>
<path fill-rule="evenodd" clip-rule="evenodd" d="M15.7224 3.10809C14.6312 2.89104 13.5002 3.00244 12.4724 3.42818C11.4446 3.85392 10.5661 4.57489 9.94798 5.49992C9.3299 6.42495 9 7.51248 9 8.625C9 9.03922 8.66421 9.375 8.25 9.375C7.83579 9.375 7.5 9.03922 7.5 8.625C7.5 8.25677 7.52853 7.89071 7.58466 7.52991C7.43389 7.50924 7.28158 7.49921 7.12886 7.49999L7.125 7.5C6.22989 7.5 5.37145 7.85558 4.73851 8.48852C4.10558 9.12145 3.75 9.9799 3.75 10.875C3.75 11.7701 4.10558 12.6286 4.73851 13.2615C5.37145 13.8944 6.22989 14.25 7.125 14.25H14.625C15.7375 14.25 16.8251 13.9201 17.7501 13.302C18.6751 12.6839 19.3961 11.8054 19.8218 10.7776C20.2476 9.74976 20.359 8.61876 20.1419 7.52762C19.9249 6.43648 19.3891 5.4342 18.6025 4.64753C17.8158 3.86086 16.8135 3.32513 15.7224 3.10809ZM7.97279 6.07279C8.16149 5.58095 8.4051 5.10908 8.70078 4.66657C9.48368 3.49487 10.5965 2.58164 11.8984 2.04236C13.2003 1.50309 14.6329 1.36199 16.015 1.63691C17.3971 1.91183 18.6667 2.59042 19.6631 3.58687C20.6596 4.58332 21.3382 5.85287 21.6131 7.23498C21.888 8.6171 21.7469 10.0497 21.2076 11.3516C20.6684 12.6535 19.7551 13.7663 18.5834 14.5492C17.4117 15.3321 16.0342 15.75 14.625 15.75H7.125C5.83207 15.75 4.59209 15.2364 3.67785 14.3221C2.76361 13.4079 2.25 12.1679 2.25 10.875C2.25 9.58207 2.76361 8.3421 3.67785 7.42786C4.59165 6.51407 5.83085 6.00051 7.12309 6" fill="#FF703E"/>
</svg>
