<svg width="24" height="24" viewBox="0 0 24 24" fill="none" xmlns="http://www.w3.org/2000/svg">
<path d="M12 18.375C15.5208 18.375 18.375 15.5208 18.375 12C18.375 8.47918 15.5208 5.625 12 5.625C8.47918 5.625 5.625 8.47918 5.625 12C5.625 15.5208 8.47918 18.375 12 18.375Z" fill="#FF703E"/>
<path d="M12 4.125C12.1989 4.125 12.3897 4.04598 12.5303 3.90533C12.671 3.76468 12.75 3.57391 12.75 3.375V1.5C12.75 1.30109 12.671 1.11032 12.5303 0.96967C12.3897 0.829018 12.1989 0.75 12 0.75C11.8011 0.75 11.6103 0.829018 11.4697 0.96967C11.329 1.11032 11.25 1.30109 11.25 1.5V3.375C11.25 3.57391 11.329 3.76468 11.4697 3.90533C11.6103 4.04598 11.8011 4.125 12 4.125Z" fill="#FF703E"/>
<path d="M5.37156 6.4313C5.51334 6.56932 5.70339 6.64654 5.90125 6.64654C6.09911 6.64654 6.28916 6.56932 6.43094 6.4313C6.5712 6.2907 6.64997 6.10021 6.64997 5.90162C6.64997 5.70302 6.5712 5.51253 6.43094 5.37193L5.10906 4.04068C5.04182 3.95874 4.95816 3.89179 4.86348 3.84414C4.7688 3.79648 4.66519 3.76918 4.55932 3.76398C4.45345 3.75878 4.34767 3.7758 4.24877 3.81395C4.14988 3.8521 4.06006 3.91053 3.98511 3.98548C3.91016 4.06043 3.85173 4.15024 3.81358 4.24914C3.77543 4.34803 3.75841 4.45382 3.76361 4.55969C3.76881 4.66556 3.79612 4.76917 3.84377 4.86385C3.89143 4.95853 3.95838 5.04218 4.04031 5.10943L5.37156 6.4313Z" fill="#FF703E"/>
<path d="M4.125 12C4.125 11.8011 4.04598 11.6103 3.90533 11.4697C3.76468 11.329 3.57391 11.25 3.375 11.25H1.5C1.30109 11.25 1.11032 11.329 0.96967 11.4697C0.829018 11.6103 0.75 11.8011 0.75 12C0.75 12.1989 0.829018 12.3897 0.96967 12.5303C1.11032 12.671 1.30109 12.75 1.5 12.75H3.375C3.57391 12.75 3.76468 12.671 3.90533 12.5303C4.04598 12.3897 4.125 12.1989 4.125 12Z" fill="#FF703E"/>
<path d="M5.37141 17.5687L4.04016 18.8906C3.89932 19.0328 3.82031 19.2248 3.82031 19.425C3.82031 19.6251 3.89932 19.8172 4.04016 19.9593C4.18515 20.0954 4.37575 20.1723 4.57453 20.175C4.77369 20.1741 4.96494 20.097 5.10891 19.9593L6.43078 18.6281C6.56005 18.4854 6.62951 18.2985 6.62477 18.1061C6.62003 17.9136 6.54146 17.7303 6.40533 17.5942C6.26919 17.458 6.08592 17.3795 5.89346 17.3747C5.70099 17.37 5.51408 17.4395 5.37141 17.5687Z" fill="#FF703E"/>
<path d="M12 19.875C11.8011 19.875 11.6103 19.954 11.4697 20.0947C11.329 20.2353 11.25 20.4261 11.25 20.625V22.5C11.25 22.6989 11.329 22.8897 11.4697 23.0303C11.6103 23.171 11.8011 23.25 12 23.25C12.1989 23.25 12.3897 23.171 12.5303 23.0303C12.671 22.8897 12.75 22.6989 12.75 22.5V20.625C12.75 20.4261 12.671 20.2353 12.5303 20.0947C12.3897 19.954 12.1989 19.875 12 19.875Z" fill="#FF703E"/>
<path d="M18.6286 17.5687C18.4859 17.4395 18.299 17.37 18.1065 17.3747C17.9141 17.3795 17.7308 17.458 17.5947 17.5942C17.4585 17.7303 17.38 17.9136 17.3752 18.1061C17.3705 18.2985 17.4399 18.4854 17.5692 18.6281L18.8911 19.9593C19.0351 20.097 19.2263 20.1741 19.4255 20.175C19.6242 20.1723 19.8148 20.0954 19.9598 19.9593C20.1007 19.8172 20.1797 19.6251 20.1797 19.425C20.1797 19.2248 20.1007 19.0328 19.9598 18.8906L18.6286 17.5687Z" fill="#FF703E"/>
<path d="M22.5 11.25H20.625C20.4261 11.25 20.2353 11.329 20.0947 11.4697C19.954 11.6103 19.875 11.8011 19.875 12C19.875 12.1989 19.954 12.3897 20.0947 12.5303C20.2353 12.671 20.4261 12.75 20.625 12.75H22.5C22.6989 12.75 22.8897 12.671 23.0303 12.5303C23.171 12.3897 23.25 12.1989 23.25 12C23.25 11.8011 23.171 11.6103 23.0303 11.4697C22.8897 11.329 22.6989 11.25 22.5 11.25Z" fill="#FF703E"/>
<path d="M18.103 6.64692C18.2005 6.64778 18.2971 6.62915 18.3873 6.59212C18.4774 6.55509 18.5593 6.50041 18.628 6.43129L19.9593 5.10942C20.0789 4.9637 20.14 4.7787 20.1307 4.59041C20.1215 4.40212 20.0425 4.224 19.9092 4.0907C19.7759 3.9574 19.5978 3.87845 19.4095 3.8692C19.2212 3.85995 19.0362 3.92107 18.8905 4.04067L17.5686 5.37192C17.4284 5.51252 17.3496 5.70301 17.3496 5.90161C17.3496 6.1002 17.4284 6.29069 17.5686 6.43129C17.6385 6.50155 17.7218 6.5569 17.8137 6.59396C17.9055 6.63103 18.004 6.64905 18.103 6.64692Z" fill="#FF703E"/>
</svg>
