<svg width="24" height="24" viewBox="0 0 24 24" fill="none" xmlns="http://www.w3.org/2000/svg">
<path fill-rule="evenodd" clip-rule="evenodd" d="M11.25 16.5C10.6287 16.5 10.125 17.0037 10.125 17.625C10.125 18.2463 10.6287 18.75 11.25 18.75C11.8713 18.75 12.375 18.2463 12.375 17.625C12.375 17.0037 11.8713 16.5 11.25 16.5ZM8.625 17.625C8.625 16.1753 9.80025 15 11.25 15C12.6997 15 13.875 16.1753 13.875 17.625C13.875 19.0747 12.6997 20.25 11.25 20.25C9.80025 20.25 8.625 19.0747 8.625 17.625Z" fill="#FF703E"/>
<path fill-rule="evenodd" clip-rule="evenodd" d="M11.25 10.5C11.6642 10.5 12 10.8358 12 11.25V15.75C12 16.1642 11.6642 16.5 11.25 16.5C10.8358 16.5 10.5 16.1642 10.5 15.75V11.25C10.5 10.8358 10.8358 10.5 11.25 10.5Z" fill="#FF703E"/>
<path fill-rule="evenodd" clip-rule="evenodd" d="M19.875 3.75C20.2892 3.75 20.625 4.08579 20.625 4.5V7.5C20.625 7.91421 20.2892 8.25 19.875 8.25C19.4608 8.25 19.125 7.91421 19.125 7.5V4.5C19.125 4.08579 19.4608 3.75 19.875 3.75Z" fill="#FF703E"/>
<path fill-rule="evenodd" clip-rule="evenodd" d="M16.312 6.33962C16.4402 5.94576 16.8635 5.73046 17.2573 5.85872L20.1073 6.78685C20.5012 6.91511 20.7165 7.33837 20.5882 7.73222C20.46 8.12608 20.0367 8.34138 19.6429 8.21312L16.7929 7.285C16.399 7.15673 16.1837 6.73347 16.312 6.33962Z" fill="#FF703E"/>
<path fill-rule="evenodd" clip-rule="evenodd" d="M20.3154 6.8931C20.6506 7.13642 20.7251 7.60541 20.4818 7.94062L18.7193 10.3687C18.476 10.704 18.007 10.7785 17.6718 10.5351C17.3366 10.2918 17.2621 9.82282 17.5054 9.48761L19.2679 7.05948C19.5112 6.72427 19.9802 6.64978 20.3154 6.8931Z" fill="#FF703E"/>
<path fill-rule="evenodd" clip-rule="evenodd" d="M19.4345 6.8931C19.7697 6.64978 20.2387 6.72427 20.482 7.05948L22.2445 9.48761C22.4878 9.82282 22.4133 10.2918 22.0781 10.5351C21.7429 10.7785 21.2739 10.704 21.0306 10.3687L19.2681 7.94062C19.0248 7.60541 19.0993 7.13642 19.4345 6.8931Z" fill="#FF703E"/>
<path fill-rule="evenodd" clip-rule="evenodd" d="M23.4383 6.33962C23.5666 6.73347 23.3513 7.15673 22.9574 7.285L20.1074 8.21312C19.7136 8.34138 19.2903 8.12608 19.1621 7.73222C19.0338 7.33837 19.2491 6.91511 19.643 6.78685L22.493 5.85872C22.8868 5.73046 23.3101 5.94576 23.4383 6.33962Z" fill="#FF703E"/>
<path fill-rule="evenodd" clip-rule="evenodd" d="M11.25 2.25C10.6533 2.25 10.081 2.48705 9.65901 2.90901C9.23705 3.33097 9 3.90326 9 4.5V13.7812H8.25L8.71154 14.3724C8.0345 14.901 7.53935 15.6277 7.29518 16.4513C7.05101 17.2748 7.07 18.1539 7.3495 18.9661C7.629 19.7783 8.15507 20.483 8.85431 20.9819C9.55354 21.4807 10.3911 21.7489 11.25 21.7489C12.1089 21.7489 12.9465 21.4807 13.6457 20.9819C14.3449 20.483 14.871 19.7783 15.1505 18.9661C15.43 18.1539 15.449 17.2748 15.2048 16.4513C14.9607 15.6277 14.4655 14.901 13.7885 14.3724C13.6064 14.2303 13.5 14.0122 13.5 13.7812V4.5C13.5 3.90326 13.2629 3.33097 12.841 2.90901C12.419 2.48705 11.8467 2.25 11.25 2.25ZM7.5 13.4312V4.5C7.5 3.50544 7.89509 2.55161 8.59835 1.84835C9.30161 1.14509 10.2554 0.75 11.25 0.75C12.2446 0.75 13.1984 1.14509 13.9016 1.84835C14.6049 2.55161 15 3.50544 15 4.5V13.4312C15.7757 14.125 16.3457 15.0224 16.6429 16.0248C16.9759 17.1478 16.95 18.3467 16.5689 19.4542C16.1877 20.5618 15.4704 21.5227 14.5169 22.203C13.5634 22.8832 12.4213 23.2489 11.25 23.2489C10.0787 23.2489 8.93665 22.8832 7.98314 22.203C7.02964 21.5227 6.31228 20.5618 5.93114 19.4542C5.55 18.3467 5.5241 17.1478 5.85706 16.0248C6.1543 15.0224 6.72429 14.125 7.5 13.4312Z" fill="#FF703E"/>
</svg>
