<svg width="24" height="24" viewBox="0 0 24 24" fill="none" xmlns="http://www.w3.org/2000/svg">
<path fill-rule="evenodd" clip-rule="evenodd" d="M11.25 16.5C10.6287 16.5 10.125 17.0037 10.125 17.625C10.125 18.2463 10.6287 18.75 11.25 18.75C11.8713 18.75 12.375 18.2463 12.375 17.625C12.375 17.0037 11.8713 16.5 11.25 16.5ZM8.625 17.625C8.625 16.1753 9.80025 15 11.25 15C12.6997 15 13.875 16.1753 13.875 17.625C13.875 19.0747 12.6997 20.25 11.25 20.25C9.80025 20.25 8.625 19.0747 8.625 17.625Z" fill="#FF703E"/>
<path fill-rule="evenodd" clip-rule="evenodd" d="M11.25 3.75C11.6642 3.75 12 4.08579 12 4.5V15.75C12 16.1642 11.6642 16.5 11.25 16.5C10.8358 16.5 10.5 16.1642 10.5 15.75V4.5C10.5 4.08579 10.8358 3.75 11.25 3.75Z" fill="#FF703E"/>
<path fill-rule="evenodd" clip-rule="evenodd" d="M17.543 6.40017C17.8617 6.26807 18.2033 6.20007 18.5482 6.20007C18.8932 6.20007 19.2348 6.26807 19.5535 6.40017C19.8721 6.53227 20.1616 6.72589 20.4054 6.96995C20.5099 7.07455 20.634 7.15753 20.7706 7.21414C20.9071 7.27076 21.0535 7.2999 21.2014 7.2999C21.3492 7.2999 21.4956 7.27076 21.6322 7.21414C21.7687 7.15753 21.8928 7.07455 21.9973 6.96995C22.29 6.67689 22.7649 6.67663 23.058 6.96936C23.351 7.26209 23.3513 7.73696 23.0586 8.03002C22.8148 8.27408 22.5253 8.4677 22.2066 8.5998C21.8879 8.7319 21.5463 8.7999 21.2014 8.7999C20.8564 8.7999 20.5148 8.7319 20.1961 8.5998C19.8775 8.4677 19.588 8.27408 19.3442 8.03002C19.2397 7.92542 19.1156 7.84244 18.9791 7.78583C18.8425 7.72921 18.6961 7.70007 18.5482 7.70007C18.4004 7.70007 18.254 7.72921 18.1174 7.78583C17.9809 7.84244 17.8568 7.92542 17.7523 8.03002C17.4596 8.32308 16.9847 8.32334 16.6916 8.03061C16.3986 7.73788 16.3983 7.26301 16.6911 6.96995C16.9348 6.72589 17.2244 6.53227 17.543 6.40017Z" fill="#FF703E"/>
<path fill-rule="evenodd" clip-rule="evenodd" d="M17.543 10.1502C17.8617 10.0181 18.2033 9.95007 18.5482 9.95007C18.8932 9.95007 19.2348 10.0181 19.5535 10.1502C19.8721 10.2823 20.1616 10.4759 20.4054 10.72C20.5099 10.8245 20.634 10.9075 20.7706 10.9641C20.9071 11.0208 21.0535 11.0499 21.2014 11.0499C21.3492 11.0499 21.4956 11.0208 21.6322 10.9641C21.7687 10.9075 21.8928 10.8245 21.9973 10.72C22.29 10.4269 22.7649 10.4266 23.058 10.7194C23.351 11.0121 23.3513 11.487 23.0586 11.78C22.8148 12.0241 22.5253 12.2177 22.2066 12.3498C21.8879 12.4819 21.5463 12.5499 21.2014 12.5499C20.8564 12.5499 20.5148 12.4819 20.1961 12.3498C19.8775 12.2177 19.588 12.0241 19.3442 11.78C19.2397 11.6754 19.1156 11.5924 18.9791 11.5358C18.8425 11.4792 18.6961 11.4501 18.5482 11.4501C18.4004 11.4501 18.254 11.4792 18.1174 11.5358C17.9809 11.5924 17.8568 11.6754 17.7523 11.78C17.4596 12.0731 16.9847 12.0733 16.6916 11.7806C16.3986 11.4879 16.3983 11.013 16.6911 10.72C16.9348 10.4759 17.2244 10.2823 17.543 10.1502Z" fill="#FF703E"/>
<path fill-rule="evenodd" clip-rule="evenodd" d="M11.25 2.25C10.6533 2.25 10.081 2.48705 9.65901 2.90901C9.23705 3.33097 9 3.90326 9 4.5V13.7812H8.25L8.71154 14.3724C8.0345 14.901 7.53935 15.6277 7.29518 16.4513C7.05101 17.2748 7.07 18.1539 7.3495 18.9661C7.629 19.7783 8.15507 20.483 8.85431 20.9819C9.55354 21.4807 10.3911 21.7489 11.25 21.7489C12.1089 21.7489 12.9465 21.4807 13.6457 20.9819C14.3449 20.483 14.871 19.7783 15.1505 18.9661C15.43 18.1539 15.449 17.2748 15.2048 16.4513C14.9607 15.6277 14.4655 14.901 13.7885 14.3724C13.6064 14.2303 13.5 14.0122 13.5 13.7812V4.5C13.5 3.90326 13.2629 3.33097 12.841 2.90901C12.419 2.48705 11.8467 2.25 11.25 2.25ZM7.5 13.4312V4.5C7.5 3.50544 7.89509 2.55161 8.59835 1.84835C9.30161 1.14509 10.2554 0.75 11.25 0.75C12.2446 0.75 13.1984 1.14509 13.9016 1.84835C14.6049 2.55161 15 3.50544 15 4.5V13.4312C15.7757 14.125 16.3457 15.0224 16.6429 16.0248C16.9759 17.1478 16.95 18.3467 16.5689 19.4542C16.1877 20.5618 15.4704 21.5227 14.5169 22.203C13.5634 22.8832 12.4213 23.2489 11.25 23.2489C10.0787 23.2489 8.93665 22.8832 7.98314 22.203C7.02964 21.5227 6.31228 20.5618 5.93114 19.4542C5.55 18.3467 5.5241 17.1478 5.85706 16.0248C6.1543 15.0224 6.72429 14.125 7.5 13.4312Z" fill="#FF703E"/>
</svg>
