<svg width="24" height="24" viewBox="0 0 24 24" fill="none" xmlns="http://www.w3.org/2000/svg">
<path fill-rule="evenodd" clip-rule="evenodd" d="M12 2.25C11.4033 2.25 10.831 2.48705 10.409 2.90901C9.98705 3.33097 9.75 3.90326 9.75 4.5V13.7812H9L9.46154 14.3724C8.7845 14.901 8.28935 15.6277 8.04518 16.4513C7.80101 17.2748 7.82 18.1539 8.0995 18.9661C8.379 19.7783 8.90507 20.483 9.60431 20.9819C10.3035 21.4807 11.1411 21.7489 12 21.7489C12.8589 21.7489 13.6965 21.4807 14.3957 20.9819C15.0949 20.483 15.621 19.7783 15.9005 18.9661C16.18 18.1539 16.199 17.2748 15.9548 16.4513C15.7107 15.6277 15.2155 14.901 14.5385 14.3724C14.3564 14.2303 14.25 14.0122 14.25 13.7812V4.5C14.25 3.90326 14.0129 3.33097 13.591 2.90901C13.169 2.48705 12.5967 2.25 12 2.25ZM8.25 13.4312V4.5C8.25 3.50544 8.64509 2.55161 9.34835 1.84835C10.0516 1.14509 11.0054 0.75 12 0.75C12.9946 0.75 13.9484 1.14509 14.6516 1.84835C15.3549 2.55161 15.75 3.50544 15.75 4.5V13.4312C16.5257 14.125 17.0957 15.0224 17.3929 16.0248C17.7259 17.1478 17.7 18.3467 17.3189 19.4542C16.9377 20.5618 16.2204 21.5227 15.2669 22.203C14.3134 22.8832 13.1713 23.2489 12 23.2489C10.8287 23.2489 9.68665 22.8832 8.73314 22.203C7.77964 21.5227 7.06228 20.5618 6.68114 19.4542C6.3 18.3467 6.2741 17.1478 6.60706 16.0248C6.9043 15.0224 7.47429 14.125 8.25 13.4312Z" fill="#FF703E"/>
<path fill-rule="evenodd" clip-rule="evenodd" d="M12 16.5C11.3787 16.5 10.875 17.0037 10.875 17.625C10.875 18.2463 11.3787 18.75 12 18.75C12.6213 18.75 13.125 18.2463 13.125 17.625C13.125 17.0037 12.6213 16.5 12 16.5ZM9.375 17.625C9.375 16.1753 10.5503 15 12 15C13.4497 15 14.625 16.1753 14.625 17.625C14.625 19.0747 13.4497 20.25 12 20.25C10.5503 20.25 9.375 19.0747 9.375 17.625Z" fill="#FF703E"/>
<path fill-rule="evenodd" clip-rule="evenodd" d="M12 7.5C12.4142 7.5 12.75 7.83579 12.75 8.25V15.75C12.75 16.1642 12.4142 16.5 12 16.5C11.5858 16.5 11.25 16.1642 11.25 15.75V8.25C11.25 7.83579 11.5858 7.5 12 7.5Z" fill="#FF703E"/>
</svg>
