<svg width="36" height="36" viewBox="0 0 36 36" fill="none" xmlns="http://www.w3.org/2000/svg">
<g id="Instagram">
<path id="Combined-Shape" fill-rule="evenodd" clip-rule="evenodd" d="M18 0C8.05887 0 0 8.05887 0 18C0 27.9411 8.05887 36 18 36C27.9411 36 36 27.9411 36 18C36 8.05887 27.9411 0 18 0ZM14.0425 8.458C15.0665 8.4114 15.3937 8.4 18.0009 8.4H17.9979C20.6059 8.4 20.9319 8.4114 21.9559 8.458C22.978 8.5048 23.676 8.6666 24.288 8.90401C24.92 9.14901 25.454 9.47701 25.988 10.011C26.522 10.5446 26.85 11.0802 27.096 11.7116C27.332 12.322 27.494 13.0196 27.542 14.0417C27.588 15.0657 27.6 15.3929 27.6 18.0001C27.6 20.6073 27.588 20.9337 27.542 21.9577C27.494 22.9794 27.332 23.6772 27.096 24.2878C26.85 24.919 26.522 25.4546 25.988 25.9882C25.4546 26.5222 24.9198 26.851 24.2886 27.0962C23.6778 27.3336 22.9794 27.4954 21.9573 27.5422C20.9333 27.5888 20.6071 27.6002 17.9997 27.6002C15.3927 27.6002 15.0657 27.5888 14.0417 27.5422C13.0198 27.4954 12.322 27.3336 11.7112 27.0962C11.0802 26.851 10.5446 26.5222 10.0112 25.9882C9.47741 25.4546 9.14941 24.919 8.90401 24.2876C8.6668 23.6772 8.505 22.9796 8.458 21.9575C8.4116 20.9335 8.4 20.6073 8.4 18.0001C8.4 15.3929 8.412 15.0655 8.4578 14.0415C8.5038 13.0198 8.6658 12.322 8.9038 11.7114C9.14981 11.0802 9.47781 10.5446 10.0118 10.011C10.5454 9.47721 11.081 9.14921 11.7124 8.90401C12.3228 8.6666 13.0204 8.5048 14.0425 8.458Z" fill="#424242"/>
<path id="Combined-Shape_2" fill-rule="evenodd" clip-rule="evenodd" d="M17.1417 10.13C17.3089 10.1297 17.4888 10.1298 17.6829 10.1299L18.0029 10.13C20.5661 10.13 20.8699 10.1392 21.8821 10.1852C22.8181 10.228 23.3262 10.3844 23.6646 10.5158C24.1126 10.6898 24.432 10.8978 24.7678 11.2338C25.1038 11.5698 25.3118 11.8898 25.4862 12.3378C25.6176 12.6758 25.7742 13.1838 25.8168 14.1198C25.8628 15.1318 25.8728 15.4358 25.8728 17.9978C25.8728 20.5599 25.8628 20.8639 25.8168 21.8759C25.774 22.8119 25.6176 23.3199 25.4862 23.6579C25.3122 24.1059 25.1038 24.4249 24.7678 24.7607C24.4318 25.0967 24.1128 25.3047 23.6646 25.4787C23.3266 25.6107 22.8181 25.7667 21.8821 25.8095C20.8701 25.8555 20.5661 25.8655 18.0029 25.8655C15.4395 25.8655 15.1357 25.8555 14.1237 25.8095C13.1876 25.7663 12.6796 25.6099 12.341 25.4785C11.893 25.3045 11.573 25.0965 11.237 24.7605C10.901 24.4245 10.693 24.1053 10.5186 23.6571C10.3872 23.3191 10.2306 22.8111 10.188 21.8751C10.142 20.8631 10.1328 20.5591 10.1328 17.9954C10.1328 15.4318 10.142 15.1294 10.188 14.1174C10.2308 13.1814 10.3872 12.6734 10.5186 12.335C10.6926 11.887 10.901 11.567 11.237 11.231C11.573 10.895 11.893 10.687 12.341 10.5126C12.6794 10.3806 13.1876 10.2246 14.1237 10.1816C15.0093 10.1416 15.3525 10.1296 17.1417 10.1276V10.13ZM23.1273 11.724C22.4913 11.724 21.9753 12.2394 21.9753 12.8756C21.9753 13.5116 22.4913 14.0276 23.1273 14.0276C23.7634 14.0276 24.2794 13.5116 24.2794 12.8756C24.2794 12.2396 23.7634 11.7236 23.1273 11.7236V11.724ZM13.0728 18C13.0728 15.2774 15.2803 13.07 18.0029 13.07H18.0027C20.7253 13.07 22.9321 15.2774 22.9321 18C22.9321 20.7227 20.7255 22.9291 18.0029 22.9291C15.2803 22.9291 13.0728 20.7227 13.0728 18Z" fill="#424242"/>
<path id="Shape" d="M18.0047 14.8C19.7719 14.8 21.2048 16.2327 21.2048 18.0001C21.2048 19.7673 19.7719 21.2001 18.0047 21.2001C16.2373 21.2001 14.8047 19.7673 14.8047 18.0001C14.8047 16.2327 16.2373 14.8 18.0047 14.8Z" fill="#424242"/>
</g>
</svg>
