<svg width="48" height="48" viewBox="0 0 48 48" fill="none" xmlns="http://www.w3.org/2000/svg">
<g id="Invision">
<path id="Combined-Shape" fill-rule="evenodd" clip-rule="evenodd" d="M0 24C0 10.7452 10.7452 0 24 0C37.2548 0 48 10.7452 48 24C48 37.2548 37.2548 48 24 48C10.7452 48 0 37.2548 0 24ZM33.3706 36.4204C35.6185 36.4204 37.4091 34.9733 38.3996 31.5062L36.7236 30.8591C35.8853 33.1819 35.1613 33.6021 34.59 33.6021C34.0184 33.6021 33.7133 33.2215 33.7133 32.4598C33.7133 32.117 33.7901 31.7369 33.9039 31.2788L35.1233 26.8997C35.4281 25.8714 35.5424 24.961 35.5424 24.1232C35.5424 20.8468 33.5611 19.1406 31.1609 19.1406C28.9133 19.1406 26.6272 21.1754 25.4844 23.3093L26.3224 19.4942H19.8075L18.8931 22.8773H21.941L20.0643 30.3741C18.5902 33.6505 15.8827 33.6859 15.543 33.6097C14.9851 33.484 14.6284 33.2757 14.6284 32.551C14.6284 32.1325 14.7045 31.5391 14.895 30.8147L17.7527 19.4942H10.514L9.59961 22.8773H12.6092L10.6662 30.791C10.514 31.4387 10.4376 32.1142 10.4376 32.6848C10.4376 34.933 11.6567 36.4168 14.2474 36.4168C16.3964 36.4168 18.1382 35.1236 19.3923 33.0632L18.6265 36.1024H22.8934L25.3319 26.3563C25.9413 23.8797 27.1223 22.629 28.9133 22.629C30.323 22.629 31.1992 23.5057 31.1992 24.9529C31.1992 25.3722 31.1609 25.829 31.0087 26.3244L29.7512 30.82C29.5607 31.4678 29.4849 32.1159 29.4849 32.7249C29.4849 34.8592 30.7417 36.4204 33.3706 36.4204ZM13.4482 14.552C13.4482 13.1048 14.6291 12 16.0388 12C17.4487 12 18.6295 13.1048 18.6295 14.552C18.6295 16.0003 17.4487 17.1052 16.0388 17.1052C14.6291 17.1052 13.4482 16.0003 13.4482 14.552Z" fill="#616161"/>
</g>
</svg>
