<svg width="48" height="48" viewBox="0 0 48 48" fill="none" xmlns="http://www.w3.org/2000/svg">
<g id="RSS">
<path id="Combined-Shape" fill-rule="evenodd" clip-rule="evenodd" d="M24 0C10.7452 0 0 10.7452 0 24C0 37.2548 10.7452 48 24 48C37.2548 48 48 37.2548 48 24C48 10.7452 37.2548 0 24 0ZM17.6004 33.5992C15.8332 33.5992 14.4004 32.1664 14.4004 30.3992C14.4004 28.632 15.8332 27.1992 17.6004 27.1992C19.3675 27.1992 20.8003 28.632 20.8003 30.3992C20.8003 32.1664 19.3675 33.5992 17.6004 33.5992ZM36.8001 33.5992C36.8001 21.248 26.7515 11.1992 14.4004 11.1992V15.4656C24.3995 15.4656 32.5338 23.6 32.5338 33.5992H36.8001ZM14.4004 18.666C22.6347 18.666 29.3338 25.3652 29.3338 33.5996H25.0675C25.0675 27.718 20.2819 22.9332 14.4004 22.9332V18.666Z" fill="#616161"/>
</g>
</svg>
