<svg width="48" height="48" viewBox="0 0 48 48" fill="none" xmlns="http://www.w3.org/2000/svg">
<g id="Telegram">
<path id="Combined-Shape" fill-rule="evenodd" clip-rule="evenodd" d="M0 24C0 37.2548 10.7452 48 24 48C37.2548 48 48 37.2548 48 24C48 10.7452 37.2548 0 24 0C10.7452 0 0 10.7452 0 24ZM19.6004 34.9995L20.0088 28.8818L20.0084 28.8815L31.1373 18.8385C31.6258 18.405 31.0307 18.1936 30.3823 18.5868L16.6477 27.2518L10.7151 25.4002C9.43393 25.0079 9.42473 24.1275 11.0027 23.4946L34.1207 14.5804C35.1766 14.101 36.1957 14.834 35.7926 16.45L31.8556 35.0026C31.5807 36.321 30.7841 36.6363 29.6804 36.0273L23.6831 31.5964L20.8004 34.3995C20.7913 34.4083 20.7823 34.4171 20.7733 34.4259C20.4509 34.7398 20.1841 34.9995 19.6004 34.9995Z" fill="#616161"/>
</g>
</svg>
