<svg width="48" height="48" viewBox="0 0 48 48" fill="none" xmlns="http://www.w3.org/2000/svg">
<g id="Twitter">
<path id="Combined-Shape" fill-rule="evenodd" clip-rule="evenodd" d="M24 0C10.7452 0 0 10.7452 0 24C0 37.2548 10.7452 48 24 48C37.2548 48 48 37.2548 48 24C48 10.7452 37.2548 0 24 0ZM23.3316 20.3383L23.2812 19.5079C23.1301 17.3555 24.4563 15.3895 26.5548 14.6269C27.327 14.3557 28.6364 14.3218 29.4926 14.5591C29.8283 14.6608 30.4663 14.9997 30.9195 15.3048L31.7421 15.8641L32.6486 15.5759C33.1523 15.4234 33.8238 15.1692 34.1259 14.9997C34.4113 14.8472 34.6631 14.7624 34.6631 14.8133C34.6631 15.1014 34.042 16.0844 33.5216 16.6267C32.8165 17.3894 33.018 17.4572 34.4449 16.9487C35.3011 16.6606 35.3178 16.6606 35.15 16.9826C35.0492 17.1521 34.5288 17.7453 33.9748 18.2876C33.0347 19.2198 32.9844 19.3215 32.9844 20.1011C32.9844 21.3044 32.4136 23.8127 31.8428 25.1855C30.7852 27.7616 28.5189 30.4224 26.2526 31.7613C23.063 33.6426 18.8157 34.1171 15.24 33.0155C14.0481 32.6426 12 31.6935 12 31.5241C12 31.4732 12.6211 31.4054 13.3766 31.3885C14.9546 31.3546 16.5326 30.9139 17.8756 30.1343L18.7822 29.592L17.7413 29.2361C16.264 28.7276 14.9378 27.5582 14.6021 26.4566C14.5013 26.1007 14.5349 26.0837 15.475 26.0837L16.4487 26.0668L15.6261 25.677C14.6524 25.1855 13.7627 24.355 13.3262 23.5076C13.0072 22.8975 12.6044 21.3552 12.7219 21.2366C12.7554 21.1857 13.108 21.2874 13.5109 21.423C14.6692 21.8467 14.8203 21.745 14.1488 21.0332C12.8897 19.7452 12.5036 17.83 13.108 16.0166L13.3934 15.2031L14.5013 16.3047C16.7677 18.5249 19.4369 19.8469 22.4922 20.2367L23.3316 20.3383Z" fill="#616161"/>
</g>
</svg>
