<svg width="24" height="24" viewBox="0 0 24 24" fill="none" xmlns="http://www.w3.org/2000/svg">
<g id="Phosphor Icons Regular / AirplaneLanding">
<path id="Vector (Stroke)" fill-rule="evenodd" clip-rule="evenodd" d="M8.25 20.25C8.25 19.8358 8.58579 19.5 9 19.5H22.5C22.9142 19.5 23.25 19.8358 23.25 20.25C23.25 20.6642 22.9142 21 22.5 21H9C8.58579 21 8.25 20.6642 8.25 20.25Z" fill="#FF703E"/>
<path id="Vector (Stroke)_2" fill-rule="evenodd" clip-rule="evenodd" d="M3 4.79059V9.72184H2.25L3 9.72309C2.99918 10.2139 3.15956 10.6915 3.4565 11.0823C3.75343 11.4731 4.17049 11.7557 4.64359 11.8865L4.64617 11.8872L20.25 16.2608V13.9031L20.25 13.9018C20.2508 13.411 20.0904 12.9335 19.7935 12.5426C19.4966 12.1518 19.0795 11.8693 18.6064 11.7385L14.0493 10.4726C13.8588 10.4197 13.6969 10.2937 13.5988 10.1221L10.741 5.12086L9.75 4.79053V8.24996C9.75 8.48855 9.63648 8.71291 9.44425 8.85423C9.25202 8.99556 9.00402 9.03699 8.77629 8.96582L5.77629 8.02832C5.58828 7.96957 5.43093 7.83921 5.33824 7.66541L3.97902 5.11687L3 4.79059ZM1.5 9.72126V4.79065C1.5 4.79063 1.5 4.79067 1.5 4.79065C1.49999 4.55348 1.55622 4.31963 1.66407 4.1084C1.77194 3.89715 1.92836 3.7145 2.1205 3.57542C2.31264 3.43635 2.53502 3.34483 2.76939 3.30836C3.00376 3.27189 3.24344 3.29153 3.46875 3.36565L3.47155 3.36657L4.73717 3.78845C4.9194 3.84919 5.07137 3.97754 5.16176 4.14702L6.51711 6.68829L8.25 7.22982V4.79065C8.25 4.79063 8.25 4.79067 8.25 4.79065C8.24999 4.55348 8.30622 4.31963 8.41407 4.1084C8.52194 3.89715 8.67836 3.7145 8.8705 3.57542C9.06264 3.43635 9.28502 3.34483 9.51939 3.30836C9.75376 3.27189 9.99344 3.29153 10.2188 3.36565L10.2215 3.36657L11.4872 3.78845C11.6622 3.8468 11.8096 3.96765 11.9012 4.12786L14.7481 9.10992L19.0061 10.2927C19.006 10.2927 19.0062 10.2927 19.0061 10.2927C19.7958 10.5111 20.4922 10.9828 20.9879 11.6352C21.4834 12.2874 21.7512 13.0843 21.75 13.9034L21 13.9031L21.75 13.9043M4.24391 13.3322L4.44375 12.6093L4.24133 13.3315L4.24252 13.3318C4.24298 13.332 4.24345 13.3321 4.24391 13.3322Z" fill="#FF703E"/>
</g>
</svg>
