<svg width="24" height="24" viewBox="0 0 24 24" fill="none" xmlns="http://www.w3.org/2000/svg">
<g id="Phosphor Icons Regular / Bank">
<path id="Vector (Stroke)" fill-rule="evenodd" clip-rule="evenodd" d="M11.6069 2.36126C11.8479 2.21291 12.152 2.21291 12.393 2.36126L22.143 8.36126C22.4288 8.53712 22.563 8.88139 22.4716 9.20426C22.3802 9.52712 22.0855 9.75 21.7499 9.75H2.24994C1.91439 9.75 1.61968 9.52712 1.52829 9.20426C1.43691 8.88139 1.5711 8.53712 1.85687 8.36126L11.6069 2.36126ZM4.89972 8.25H19.1002L11.9999 3.88063L4.89972 8.25Z" fill="#FF703E"/>
<path id="Vector (Stroke)_2" fill-rule="evenodd" clip-rule="evenodd" d="M5.25 8.25C5.66421 8.25 6 8.58579 6 9V16.5C6 16.9142 5.66421 17.25 5.25 17.25C4.83579 17.25 4.5 16.9142 4.5 16.5V9C4.5 8.58579 4.83579 8.25 5.25 8.25Z" fill="#FF703E"/>
<path id="Vector (Stroke)_3" fill-rule="evenodd" clip-rule="evenodd" d="M9.75 8.25C10.1642 8.25 10.5 8.58579 10.5 9V16.5C10.5 16.9142 10.1642 17.25 9.75 17.25C9.33579 17.25 9 16.9142 9 16.5V9C9 8.58579 9.33579 8.25 9.75 8.25Z" fill="#FF703E"/>
<path id="Vector (Stroke)_4" fill-rule="evenodd" clip-rule="evenodd" d="M14.25 8.25C14.6642 8.25 15 8.58579 15 9V16.5C15 16.9142 14.6642 17.25 14.25 17.25C13.8358 17.25 13.5 16.9142 13.5 16.5V9C13.5 8.58579 13.8358 8.25 14.25 8.25Z" fill="#FF703E"/>
<path id="Vector (Stroke)_5" fill-rule="evenodd" clip-rule="evenodd" d="M18.75 8.25C19.1642 8.25 19.5 8.58579 19.5 9V16.5C19.5 16.9142 19.1642 17.25 18.75 17.25C18.3358 17.25 18 16.9142 18 16.5V9C18 8.58579 18.3358 8.25 18.75 8.25Z" fill="#FF703E"/>
<path id="Vector (Stroke)_6" fill-rule="evenodd" clip-rule="evenodd" d="M2.25 16.5C2.25 16.0858 2.58579 15.75 3 15.75H21C21.4142 15.75 21.75 16.0858 21.75 16.5C21.75 16.9142 21.4142 17.25 21 17.25H3C2.58579 17.25 2.25 16.9142 2.25 16.5Z" fill="#FF703E"/>
<path id="Vector (Stroke)_7" fill-rule="evenodd" clip-rule="evenodd" d="M0.75 19.5C0.75 19.0858 1.08579 18.75 1.5 18.75H22.5C22.9142 18.75 23.25 19.0858 23.25 19.5C23.25 19.9142 22.9142 20.25 22.5 20.25H1.5C1.08579 20.25 0.75 19.9142 0.75 19.5Z" fill="#FF703E"/>
</g>
</svg>
