<svg width="24" height="24" viewBox="0 0 24 24" fill="none" xmlns="http://www.w3.org/2000/svg">
<g id="Phosphor Icons Regular / ChalkboardTeacher">
<path id="Vector (Stroke)" fill-rule="evenodd" clip-rule="evenodd" d="M9.75 11.25C8.50736 11.25 7.5 12.2574 7.5 13.5C7.5 14.7426 8.50736 15.75 9.75 15.75C10.9926 15.75 12 14.7426 12 13.5C12 12.2574 10.9926 11.25 9.75 11.25ZM6 13.5C6 11.4289 7.67893 9.75 9.75 9.75C11.8211 9.75 13.5 11.4289 13.5 13.5C13.5 15.5711 11.8211 17.25 9.75 17.25C7.67893 17.25 6 15.5711 6 13.5Z" fill="#FF703E"/>
<path id="Vector (Stroke)_2" fill-rule="evenodd" clip-rule="evenodd" d="M2.68934 4.18934C2.97064 3.90804 3.35217 3.75 3.75 3.75H20.25C20.6478 3.75 21.0294 3.90804 21.3107 4.18934C21.592 4.47065 21.75 4.85218 21.75 5.25V18.75C21.75 19.1478 21.592 19.5294 21.3107 19.8107C21.0294 20.092 20.6478 20.25 20.25 20.25H14.4938C14.204 20.25 13.9402 20.0831 13.8161 19.8213C13.4512 19.0518 12.8754 18.4016 12.1556 17.9463C11.4359 17.491 10.6017 17.2493 9.75 17.2493C8.89832 17.2493 8.06413 17.491 7.34437 17.9463C6.6246 18.4016 6.04882 19.0518 5.68393 19.8213C5.5598 20.0831 5.29598 20.25 5.00625 20.25H3.75C3.35218 20.25 2.97065 20.092 2.68934 19.8107C2.40804 19.5294 2.25 19.1478 2.25 18.75V5.25C2.25 4.85217 2.40804 4.47064 2.68934 4.18934ZM20.25 5.25L3.75 5.25L3.75 18.75H4.55344C5.03779 17.9108 5.71956 17.1992 6.54249 16.6786C7.50218 16.0716 8.61443 15.7493 9.75 15.7493C10.8856 15.7493 11.9978 16.0716 12.9575 16.6786C13.7804 17.1992 14.4622 17.9108 14.9466 18.75H20.25V5.25Z" fill="#FF703E"/>
<path id="Vector (Stroke)_3" fill-rule="evenodd" clip-rule="evenodd" d="M5.25 7.5C5.25 7.08579 5.58579 6.75 6 6.75H18C18.4142 6.75 18.75 7.08579 18.75 7.5V16.5C18.75 16.9142 18.4142 17.25 18 17.25H16.5C16.0858 17.25 15.75 16.9142 15.75 16.5C15.75 16.0858 16.0858 15.75 16.5 15.75H17.25V8.25H6.75V9C6.75 9.41421 6.41421 9.75 6 9.75C5.58579 9.75 5.25 9.41421 5.25 9V7.5Z" fill="#FF703E"/>
</g>
</svg>
