<svg width="24" height="24" viewBox="0 0 24 24" fill="none" xmlns="http://www.w3.org/2000/svg">
<g id="Phosphor Icons Regular / ForkKnife">
<path id="Vector (Stroke)" fill-rule="evenodd" clip-rule="evenodd" d="M7.875 2.25C8.28921 2.25 8.625 2.58579 8.625 3V6.75C8.625 7.16421 8.28921 7.5 7.875 7.5C7.46079 7.5 7.125 7.16421 7.125 6.75V3C7.125 2.58579 7.46079 2.25 7.875 2.25Z" fill="#FF703E"/>
<path id="Vector (Stroke)_2" fill-rule="evenodd" clip-rule="evenodd" d="M7.875 10.125C8.28921 10.125 8.625 10.4608 8.625 10.875V21C8.625 21.4142 8.28921 21.75 7.875 21.75C7.46079 21.75 7.125 21.4142 7.125 21V10.875C7.125 10.4608 7.46079 10.125 7.875 10.125Z" fill="#FF703E"/>
<path id="Vector (Stroke)_3" fill-rule="evenodd" clip-rule="evenodd" d="M5.3733 2.26032C5.78188 2.32842 6.05789 2.71484 5.9898 3.12342L5.25064 7.55832C5.2656 8.23343 5.5403 8.87772 6.01884 9.35627C6.51113 9.84856 7.17881 10.1251 7.875 10.1251C8.57119 10.1251 9.23887 9.84856 9.73116 9.35627C10.2097 8.87772 10.4844 8.23343 10.4994 7.55832L9.7602 3.12342C9.69211 2.71484 9.96812 2.32842 10.3767 2.26032C10.7853 2.19223 11.1717 2.46824 11.2398 2.87682L11.9898 7.37682C11.9966 7.41757 12 7.45881 12 7.50012C12 8.59414 11.5654 9.64335 10.7918 10.4169C10.0182 11.1905 8.96902 11.6251 7.875 11.6251C6.78098 11.6251 5.73177 11.1905 4.95818 10.4169C4.1846 9.64334 3.75 8.59413 3.75 7.50012C3.75 7.45881 3.75341 7.41757 3.7602 7.37682L4.5102 2.87682C4.5783 2.46824 4.96472 2.19223 5.3733 2.26032Z" fill="#FF703E"/>
<path id="Vector (Stroke)_4" fill-rule="evenodd" clip-rule="evenodd" d="M19.5553 2.3857C19.7557 2.52606 19.875 2.75535 19.875 3V21C19.875 21.4142 19.5392 21.75 19.125 21.75C18.7108 21.75 18.375 21.4142 18.375 21V15.75H13.875C13.6622 15.75 13.4594 15.6596 13.3171 15.5013C13.1749 15.343 13.1066 15.1317 13.1293 14.9201L13.875 15C13.1293 14.9201 13.1292 14.9203 13.1293 14.9201L13.1296 14.9171L13.1303 14.9103L13.1331 14.8855C13.1355 14.864 13.1391 14.8329 13.144 14.7926C13.1536 14.7121 13.1681 14.5951 13.188 14.4464C13.2278 14.1491 13.2891 13.7246 13.3757 13.2112C13.5485 12.1862 13.8234 10.7986 14.2315 9.35805C14.6381 7.92316 15.1854 6.40482 15.9139 5.13468C16.6328 3.8812 17.5906 2.75991 18.8687 2.29516C19.0986 2.21155 19.3549 2.24534 19.5553 2.3857ZM14.7303 14.25H18.375V4.35051C17.9669 4.73147 17.5789 5.24654 17.215 5.88095C16.5724 7.00144 16.065 8.38935 15.6747 9.76696C15.286 11.139 15.0218 12.47 14.8548 13.4606C14.8047 13.7579 14.7634 14.0238 14.7303 14.25Z" fill="#FF703E"/>
</g>
</svg>
