<svg width="24" height="24" viewBox="0 0 24 24" fill="none" xmlns="http://www.w3.org/2000/svg">
<g id="Phosphor Icons Regular / Martini">
<path id="Vector (Stroke)" fill-rule="evenodd" clip-rule="evenodd" d="M1.55711 3.46299C1.6732 3.18273 1.94668 3 2.25002 3H21.75C22.0534 3 22.3268 3.18273 22.4429 3.46299C22.559 3.74324 22.4949 4.06583 22.2804 4.28033L12.5304 14.0303C12.2375 14.3232 11.7626 14.3232 11.4697 14.0303L1.71969 4.28033C1.50519 4.06583 1.44103 3.74324 1.55711 3.46299ZM4.06068 4.5L12 12.4393L19.9394 4.5H4.06068Z" fill="#FF703E"/>
<path id="Vector (Stroke)_2" fill-rule="evenodd" clip-rule="evenodd" d="M12 12.75C12.4142 12.75 12.75 13.0858 12.75 13.5V20.25C12.75 20.6642 12.4142 21 12 21C11.5858 21 11.25 20.6642 11.25 20.25V13.5C11.25 13.0858 11.5858 12.75 12 12.75Z" fill="#FF703E"/>
<path id="Vector (Stroke)_3" fill-rule="evenodd" clip-rule="evenodd" d="M7.5 20.25C7.5 19.8358 7.83579 19.5 8.25 19.5H15.75C16.1642 19.5 16.5 19.8358 16.5 20.25C16.5 20.6642 16.1642 21 15.75 21H8.25C7.83579 21 7.5 20.6642 7.5 20.25Z" fill="#FF703E"/>
<path id="Vector (Stroke)_4" fill-rule="evenodd" clip-rule="evenodd" d="M4.5 6.75C4.5 6.33579 4.83579 6 5.25 6H18.75C19.1642 6 19.5 6.33579 19.5 6.75C19.5 7.16421 19.1642 7.5 18.75 7.5H5.25C4.83579 7.5 4.5 7.16421 4.5 6.75Z" fill="#FF703E"/>
</g>
</svg>
