<svg width="24" height="24" viewBox="0 0 24 24" fill="none" xmlns="http://www.w3.org/2000/svg">
<g id="Phosphor Icons Regular / Parachute">
<path id="Vector (Stroke)" fill-rule="evenodd" clip-rule="evenodd" d="M5.10571 4.35571C6.93419 2.52723 9.41414 1.5 12 1.5C14.5859 1.5 17.0658 2.52723 18.8943 4.35571C20.7228 6.18419 21.75 8.66414 21.75 11.25C21.75 11.4489 21.671 11.6397 21.5303 11.7803C21.3897 11.921 21.1989 12 21 12H3C2.80109 12 2.61032 11.921 2.46967 11.7803C2.32902 11.6397 2.25 11.4489 2.25 11.25C2.25 8.66414 3.27723 6.18419 5.10571 4.35571ZM12 3C9.81196 3 7.71354 3.86919 6.16637 5.41637C4.79697 6.78577 3.9587 8.587 3.78414 10.5H20.2159C20.0413 8.587 19.203 6.78577 17.8336 5.41637C16.2865 3.86919 14.188 3 12 3Z" fill="#FF703E"/>
<path id="Vector (Stroke)_2" fill-rule="evenodd" clip-rule="evenodd" d="M2.40004 10.8C2.64857 10.4687 3.11867 10.4015 3.45004 10.65L12 17.0625L20.55 10.65C20.8814 10.4015 21.3515 10.4687 21.6 10.8C21.8486 11.1314 21.7814 11.6015 21.45 11.85L12.45 18.6C12.1834 18.8 11.8167 18.8 11.55 18.6L2.55004 11.85C2.21867 11.6015 2.15152 11.1314 2.40004 10.8Z" fill="#FF703E"/>
<path id="Vector (Stroke)_3" fill-rule="evenodd" clip-rule="evenodd" d="M12 17.25C12.4142 17.25 12.75 17.5858 12.75 18V21C12.75 21.4142 12.4142 21.75 12 21.75C11.5858 21.75 11.25 21.4142 11.25 21V18C11.25 17.5858 11.5858 17.25 12 17.25Z" fill="#FF703E"/>
<path id="Vector (Stroke)_4" fill-rule="evenodd" clip-rule="evenodd" d="M9.75 21C9.75 20.5858 10.0858 20.25 10.5 20.25H13.5C13.9142 20.25 14.25 20.5858 14.25 21C14.25 21.4142 13.9142 21.75 13.5 21.75H10.5C10.0858 21.75 9.75 21.4142 9.75 21Z" fill="#FF703E"/>
<path id="Vector (Stroke)_5" fill-rule="evenodd" clip-rule="evenodd" d="M12.3859 1.60688L12 2.25L11.6141 1.60688C11.8516 1.46437 12.1484 1.46437 12.3859 1.60688ZM12 3.19024C11.973 3.21355 11.9449 3.23829 11.9158 3.2645C11.6053 3.54395 11.1792 3.98949 10.749 4.63478C9.91066 5.89234 9.03576 7.93936 9.00107 11.0576L12 16.4557L14.9989 11.0576C14.9642 7.93936 14.0893 5.89234 13.251 4.63478C12.8208 3.98949 12.3947 3.54395 12.0842 3.2645C12.0551 3.23829 12.027 3.21355 12 3.19024ZM12.3886 2.89151C12.3899 2.8907 12.3903 2.89044 12.3898 2.89071L12.3886 2.89151ZM11.6133 1.60741C11.6137 1.60714 11.6141 1.60688 12 2.25C12.3859 1.60688 12.3863 1.60714 12.3867 1.60741L12.3877 1.60799L12.3899 1.60931L12.3953 1.6126L12.4101 1.62181C12.4217 1.62914 12.4369 1.63883 12.4552 1.65096C12.492 1.67522 12.5418 1.70927 12.6028 1.75369C12.7247 1.84249 12.8914 1.9729 13.0877 2.14956C13.4803 2.50292 13.9917 3.04176 14.499 3.80272C15.5185 5.33197 16.5 7.72669 16.5 11.25C16.5 11.3775 16.4675 11.5028 16.4056 11.6142L12.6556 18.3642C12.5233 18.6023 12.2724 18.75 12 18.75C11.7276 18.75 11.4767 18.6023 11.3444 18.3642L7.59438 11.6142C7.53248 11.5028 7.5 11.3775 7.5 11.25C7.5 7.72669 8.48146 5.33197 9.50096 3.80272C10.0083 3.04176 10.5197 2.50292 10.9123 2.14956C11.1086 1.9729 11.2753 1.84249 11.3972 1.75369C11.4582 1.70927 11.508 1.67522 11.5448 1.65096C11.5631 1.63883 11.5783 1.62914 11.5899 1.62181L11.6047 1.6126L11.6101 1.60931L11.6123 1.60799L11.6133 1.60741Z" fill="#FF703E"/>
</g>
</svg>
