<svg width="24" height="24" viewBox="0 0 24 24" fill="none" xmlns="http://www.w3.org/2000/svg">
<g id="Phosphor Icons Regular / PhoneCall">
<path id="Vector (Stroke)" fill-rule="evenodd" clip-rule="evenodd" d="M14.2194 3.55554C14.3268 3.15548 14.7381 2.91821 15.1382 3.02558C16.5374 3.40109 17.8132 4.13802 18.8376 5.1624C19.862 6.18679 20.5989 7.4626 20.9744 8.86179C21.0818 9.26185 20.8445 9.67319 20.4444 9.78056C20.0444 9.88793 19.633 9.65065 19.5257 9.2506C19.2184 8.10552 18.6153 7.06141 17.7769 6.22306C16.9386 5.38472 15.8945 4.78162 14.7494 4.47431C14.3493 4.36694 14.1121 3.95559 14.2194 3.55554Z" fill="#FF703E"/>
<path id="Vector (Stroke)_2" fill-rule="evenodd" clip-rule="evenodd" d="M13.4407 6.4544C13.547 6.05407 13.9578 5.81572 14.3581 5.92204C15.251 6.15918 16.0653 6.62814 16.7186 7.2814C17.3719 7.93466 17.8408 8.749 18.078 9.6419C18.1843 10.0422 17.9459 10.453 17.5456 10.5593C17.1453 10.6656 16.7345 10.4273 16.6282 10.0269C16.459 9.3896 16.1242 8.80834 15.6579 8.34206C15.1917 7.87578 14.6104 7.54105 13.9731 7.37179C13.5727 7.26546 13.3344 6.85474 13.4407 6.4544Z" fill="#FF703E"/>
<path id="Vector (Stroke)_3" fill-rule="evenodd" clip-rule="evenodd" d="M7.58281 2.29361C7.90697 2.25203 8.23581 2.31813 8.51873 2.48174C8.80038 2.64463 9.02097 2.89517 9.14689 3.19508L11.0285 7.58563C11.0288 7.58626 11.0291 7.58688 11.0294 7.58751C11.1268 7.81265 11.1675 8.05826 11.1479 8.3028C11.1283 8.54804 11.0487 8.78468 10.916 8.99188L10.9111 8.99959L9.34841 11.3763C10.0458 12.8147 11.209 13.9751 12.6491 14.669L12.6521 14.667L14.9941 13.1026C15.2019 12.9623 15.4418 12.8766 15.6915 12.8536C15.9413 12.8306 16.1927 12.871 16.4227 12.971C16.4237 12.9714 16.4246 12.9718 16.4255 12.9723L20.8053 14.8533C21.1051 14.9792 21.3555 15.1998 21.5183 15.4813C21.6819 15.7642 21.748 16.0931 21.7064 16.4172C21.5442 17.6835 20.9261 18.8473 19.9678 19.6908C19.0096 20.5343 17.7768 20.9997 16.5002 21C12.9197 21 9.4858 19.5777 6.95406 17.046C4.42232 14.5142 3 11.0805 3 7.50003C3.00029 6.2234 3.46573 4.99045 4.30925 4.03219C5.15271 3.07399 6.31663 2.4559 7.58281 2.29361ZM8.67187 11.7L7.99536 12.0238C7.88459 11.7924 7.83505 11.5364 7.85147 11.2803C7.86788 11.0243 7.9497 10.7767 8.08911 10.5613L8.09205 10.5567L9.65268 8.18312L9.65126 8.17985L7.76689 3.78297C6.86505 3.9002 6.03617 4.34054 5.43518 5.02329C4.8327 5.70772 4.50025 6.58821 4.5 7.50003M8.67187 11.7L7.99685 12.0269C8.84248 13.7732 10.2545 15.1816 12.003 16.0228L12.0072 16.0248C12.2426 16.1362 12.503 16.1845 12.7627 16.1647C13.0217 16.1451 13.2712 16.0585 13.4867 15.9134C13.4873 15.913 13.4879 15.9126 13.4884 15.9123L15.8291 14.3487L20.2165 16.2329L20.2177 16.2335C20.1005 17.1353 19.6595 17.9639 18.9767 18.5649C18.2923 19.1673 17.4118 19.4998 16.5 19.5M4.5 7.50003C4.50004 10.6826 5.76432 13.7349 8.01472 15.9853C10.2651 18.2357 13.3175 19.5 16.5 19.5" fill="#FF703E"/>
</g>
</svg>
