<svg width="24" height="24" viewBox="0 0 24 24" fill="none" xmlns="http://www.w3.org/2000/svg">
<g id="Phosphor Icons Regular / Scroll">
<path id="Vector (Stroke)" fill-rule="evenodd" clip-rule="evenodd" d="M16.4985 3.00002C16.8928 2.99859 17.2835 3.07513 17.6481 3.22525C18.0132 3.37559 18.3449 3.59674 18.6241 3.87593C18.9033 4.15513 19.1244 4.48685 19.2748 4.85196C19.4249 5.2165 19.5014 5.60711 19.5 6.00132C19.5 6.00194 19.5 6.00255 19.5 6.00316L18.75 6.00002H19.5V6.00132V16.5C19.5 16.9142 19.1642 17.25 18.75 17.25C18.3358 17.25 18 16.9142 18 16.5V6.00002L18 5.99687C18.0008 5.80007 17.9627 5.60506 17.8877 5.42308C17.8128 5.2411 17.7026 5.07576 17.5634 4.93659C17.4243 4.79743 17.2589 4.68721 17.0769 4.61227C16.895 4.53734 16.6999 4.49919 16.5031 4.50001L16.5 4.50002H3.75C3.33579 4.50002 3 4.16423 3 3.75002C3 3.33581 3.33579 3.00002 3.75 3.00002H16.4985ZM16.4985 3.00002C16.498 3.00002 16.4974 3.00002 16.4969 3.00003L16.5 3.75002V3.00002H16.4985Z" fill="#FF703E"/>
<path id="Vector (Stroke)_2" fill-rule="evenodd" clip-rule="evenodd" d="M9 9.75C9 9.33579 9.33579 9 9.75 9H15.75C16.1642 9 16.5 9.33579 16.5 9.75C16.5 10.1642 16.1642 10.5 15.75 10.5H9.75C9.33579 10.5 9 10.1642 9 9.75Z" fill="#FF703E"/>
<path id="Vector (Stroke)_3" fill-rule="evenodd" clip-rule="evenodd" d="M9 12.75C9 12.3358 9.33579 12 9.75 12H15.75C16.1642 12 16.5 12.3358 16.5 12.75C16.5 13.1642 16.1642 13.5 15.75 13.5H9.75C9.33579 13.5 9 13.1642 9 12.75Z" fill="#FF703E"/>
<path id="Vector (Stroke)_4" fill-rule="evenodd" clip-rule="evenodd" d="M3.92806 4.51183C3.68671 4.48297 3.44197 4.5132 3.21489 4.59991C2.98782 4.68662 2.78522 4.82722 2.62453 5.00959C2.46385 5.19197 2.34989 5.41066 2.29246 5.64684C2.23504 5.88303 2.23587 6.12963 2.29489 6.36542C2.3539 6.60121 2.46934 6.81913 2.63125 7.00042C2.90717 7.30935 2.88041 7.78347 2.57147 8.05939C2.26254 8.33532 1.78842 8.30855 1.5125 7.99962C1.18867 7.63705 0.957805 7.20121 0.839772 6.72962C0.721739 6.25804 0.720075 5.76484 0.834924 5.29247C0.949773 4.8201 1.17769 4.38271 1.49907 4.01796C1.82044 3.65321 2.22564 3.37203 2.67979 3.19861C3.13394 3.02519 3.62342 2.96473 4.10612 3.02243C4.58881 3.08014 5.05025 3.25428 5.45072 3.52987C5.85118 3.80546 6.17868 4.17425 6.40501 4.60447C6.63135 5.0347 6.74974 5.51349 6.75 5.99962V17.9996C6.75013 18.2427 6.80933 18.4821 6.92249 18.6972C7.03566 18.9123 7.19941 19.0967 7.39964 19.2345C7.59987 19.3723 7.8306 19.4594 8.07194 19.4882C8.31329 19.5171 8.55803 19.4868 8.7851 19.4001C9.01218 19.3134 9.21478 19.1728 9.37547 18.9904C9.53615 18.8081 9.65011 18.5894 9.70754 18.3532C9.76496 18.117 9.76413 17.8704 9.70511 17.6346C9.6461 17.3988 9.53066 17.1809 9.36875 16.9996C9.1718 16.7791 9.12278 16.4634 9.24358 16.1936C9.36438 15.9237 9.63246 15.75 9.92813 15.75H20.4281C20.6415 15.75 20.8449 15.8409 20.9871 16C21.3733 16.4318 21.6262 16.9661 21.7154 17.5384C21.8045 18.1108 21.726 18.6967 21.4894 19.2254C21.2528 19.7541 20.8682 20.2031 20.382 20.518C19.8959 20.8328 19.3291 21.0002 18.75 21C18.7499 21 18.7501 21 18.75 21H8.25C8.23335 21 8.21684 20.9995 8.20046 20.9984C8.09823 20.9967 7.9959 20.9898 7.89388 20.9776C7.41119 20.9199 6.94975 20.7458 6.54928 20.4702C6.14882 20.1946 5.82132 19.8258 5.59499 19.3956C5.36865 18.9653 5.25026 18.4866 5.25 18.0004V6.00042C5.24987 5.75735 5.19067 5.51796 5.07751 5.30285C4.96434 5.08773 4.80059 4.90334 4.60036 4.76555C4.40013 4.62775 4.16941 4.54068 3.92806 4.51183ZM10.8474 19.5H18.75C19.0396 19.5002 19.3235 19.4164 19.5665 19.259C19.8096 19.1015 20.0019 18.8771 20.1202 18.6127C20.2385 18.3484 20.2778 18.0554 20.2332 17.7692C20.2046 17.5855 20.1422 17.4096 20.0501 17.25H11.155C11.1568 17.2568 11.1585 17.2636 11.1602 17.2704C11.2783 17.742 11.2799 18.2352 11.1651 18.7076C11.0973 18.9865 10.99 19.2532 10.8474 19.5Z" fill="#FF703E"/>
</g>
</svg>
