<svg width="22" height="20" viewBox="0 0 22 20" fill="none" xmlns="http://www.w3.org/2000/svg">
<path id="Heart" d="M15.5457 1C14.6243 1.05633 13.7296 1.34287 12.9381 1.83519C12.156 2.32163 11.4975 2.99471 11.0173 3.79819C11.0096 3.81118 11.0057 3.81767 11 3.81767C10.9943 3.81767 10.9904 3.81118 10.9827 3.79819C10.5025 2.99471 9.84398 2.32163 9.0619 1.83519C8.27037 1.34287 7.37573 1.05633 6.45429 1C5.00772 1 3.6204 1.59576 2.59752 2.65622C1.57465 3.71669 1 5.15498 1 6.6547C1 12.0547 11 19 11 19C11 19 21 12.1272 21 6.6547C21 5.15498 20.4254 3.71669 19.4025 2.65622C18.3796 1.59576 16.9923 1 15.5457 1Z" stroke="#FF703E" stroke-width="2" stroke-linecap="round" stroke-linejoin="round"/>
</svg>
