<svg width="1284" height="263" viewBox="0 0 1284 263" fill="none" xmlns="http://www.w3.org/2000/svg">
<path d="M14.088 31L10.868 8.32H14.34L16.216 23.02L18.568 8.376H21.396L23.804 23.02L25.652 8.32H29.068L25.904 31H22.544L20.024 15.796L17.532 31H14.088ZM32.2016 31V8.32H41.7216V11.232H36.3456V17.756H40.5736V20.64H36.3456V28.144H41.7776V31H32.2016ZM44.7382 31V8.32H48.8822V28.144H54.3702V31H44.7382ZM62.9139 31.308C61.2525 31.308 59.9459 30.9813 58.9939 30.328C58.0605 29.6747 57.4072 28.788 57.0339 27.668C56.6605 26.5293 56.4739 25.2227 56.4739 23.748V15.656C56.4739 14.1067 56.6605 12.7627 57.0339 11.624C57.4072 10.4853 58.0605 9.608 58.9939 8.992C59.9459 8.376 61.2525 8.068 62.9139 8.068C64.4819 8.068 65.7045 8.33867 66.5819 8.88C67.4779 9.40267 68.1125 10.1587 68.4859 11.148C68.8592 12.1373 69.0459 13.2853 69.0459 14.592V16.496H65.0699V14.536C65.0699 13.9013 65.0325 13.3227 64.9579 12.8C64.9019 12.2773 64.7245 11.8667 64.4259 11.568C64.1459 11.2507 63.6512 11.092 62.9419 11.092C62.2325 11.092 61.7099 11.26 61.3739 11.596C61.0565 11.9133 60.8512 12.352 60.7579 12.912C60.6645 13.4533 60.6179 14.0693 60.6179 14.76V24.616C60.6179 25.4373 60.6832 26.1187 60.8139 26.66C60.9445 27.1827 61.1779 27.584 61.5139 27.864C61.8685 28.1253 62.3445 28.256 62.9419 28.256C63.6325 28.256 64.1179 28.0973 64.3979 27.78C64.6965 27.444 64.8832 27.0053 64.9579 26.464C65.0325 25.9227 65.0699 25.316 65.0699 24.644V22.6H69.0459V24.42C69.0459 25.764 68.8685 26.9587 68.5139 28.004C68.1592 29.0307 67.5339 29.8427 66.6379 30.44C65.7605 31.0187 64.5192 31.308 62.9139 31.308ZM78.651 31.308C77.0456 31.308 75.767 31.0093 74.815 30.412C73.863 29.8147 73.1816 28.956 72.771 27.836C72.3603 26.716 72.155 25.3907 72.155 23.86V15.376C72.155 13.8453 72.3603 12.5387 72.771 11.456C73.1816 10.3547 73.863 9.51467 74.815 8.936C75.767 8.35733 77.0456 8.068 78.651 8.068C80.2936 8.068 81.5816 8.35733 82.515 8.936C83.467 9.51467 84.1483 10.3547 84.559 11.456C84.9883 12.5387 85.203 13.8453 85.203 15.376V23.888C85.203 25.4 84.9883 26.716 84.559 27.836C84.1483 28.9373 83.467 29.796 82.515 30.412C81.5816 31.0093 80.2936 31.308 78.651 31.308ZM78.651 28.256C79.3416 28.256 79.8456 28.1067 80.163 27.808C80.499 27.5093 80.723 27.0987 80.835 26.576C80.947 26.0533 81.003 25.484 81.003 24.868V14.424C81.003 13.7893 80.947 13.22 80.835 12.716C80.723 12.212 80.499 11.82 80.163 11.54C79.8456 11.2413 79.3416 11.092 78.651 11.092C77.9976 11.092 77.503 11.2413 77.167 11.54C76.831 11.82 76.607 12.212 76.495 12.716C76.383 13.22 76.327 13.7893 76.327 14.424V24.868C76.327 25.484 76.3736 26.0533 76.467 26.576C76.579 27.0987 76.803 27.5093 77.139 27.808C77.475 28.1067 77.979 28.256 78.651 28.256ZM88.7723 31L89.1643 8.32H93.4483L96.6683 24.028L100.028 8.32H104.172L104.592 31H101.512L101.176 15.236L97.9563 31H95.4643L92.1883 15.18L91.8803 31H88.7723ZM108.502 31V8.32H118.022V11.232H112.646V17.756H116.874V20.64H112.646V28.144H118.078V31H108.502ZM130.675 31V11.372H127.063V8.32H138.375V11.372H134.819V31H130.675ZM147.049 31.308C145.443 31.308 144.165 31.0093 143.213 30.412C142.261 29.8147 141.579 28.956 141.169 27.836C140.758 26.716 140.553 25.3907 140.553 23.86V15.376C140.553 13.8453 140.758 12.5387 141.169 11.456C141.579 10.3547 142.261 9.51467 143.213 8.936C144.165 8.35733 145.443 8.068 147.049 8.068C148.691 8.068 149.979 8.35733 150.913 8.936C151.865 9.51467 152.546 10.3547 152.957 11.456C153.386 12.5387 153.601 13.8453 153.601 15.376V23.888C153.601 25.4 153.386 26.716 152.957 27.836C152.546 28.9373 151.865 29.796 150.913 30.412C149.979 31.0093 148.691 31.308 147.049 31.308ZM147.049 28.256C147.739 28.256 148.243 28.1067 148.561 27.808C148.897 27.5093 149.121 27.0987 149.233 26.576C149.345 26.0533 149.401 25.484 149.401 24.868V14.424C149.401 13.7893 149.345 13.22 149.233 12.716C149.121 12.212 148.897 11.82 148.561 11.54C148.243 11.2413 147.739 11.092 147.049 11.092C146.395 11.092 145.901 11.2413 145.565 11.54C145.229 11.82 145.005 12.212 144.893 12.716C144.781 13.22 144.725 13.7893 144.725 14.424V24.868C144.725 25.484 144.771 26.0533 144.865 26.576C144.977 27.0987 145.201 27.5093 145.537 27.808C145.873 28.1067 146.377 28.256 147.049 28.256Z" fill="white"/>
<g filter="url(#filter0_d_564_6463)">
<path d="M10 245.487V58.6462H52.9641V137.552H82.9669V58.6462H126.171V245.487L110.39 243.482L103.14 244.485L95.889 245.487L82.9669 243.482V168.345H52.9641L51.3848 243.482L42.884 245.487H28.3826H10Z" fill="white"/>
<path d="M233.402 244.485C216.4 245.487 208.9 243.482 197.899 244.485C189.398 243.482 186.741 237.067 183.381 227.765C180.02 218.303 178.34 206.756 178.34 193.123V58.6462H220.824V199.619C220.824 203.628 221.144 207.638 221.784 211.647C222.424 215.657 223.785 218.944 225.865 221.51C228.105 224.076 231.465 225.359 235.946 225.359C240.586 225.359 243.946 224.076 246.027 221.51C248.107 218.944 249.387 215.657 249.867 211.647C250.507 207.638 250.827 203.628 250.827 199.619V58.6462H293.551V193.123C293.551 206.756 291.791 218.303 288.271 227.765C284.91 237.067 278.906 244.485 267.905 245.487C246.027 244.485 248.283 244.485 233.402 244.485Z" fill="white"/>
<path d="M344.89 244.485V58.6462H398.415C411.536 58.6462 422.897 60.0896 432.498 62.9765C442.099 65.8633 449.54 71.0756 454.82 78.6133C460.261 85.9907 462.981 96.4955 462.981 110.128C462.981 118.147 462.341 125.283 461.061 131.538C459.781 137.793 457.38 143.246 453.86 147.897C450.5 152.387 445.619 156.156 439.219 159.203L462.424 243.482L460.923 242.981H456.923H453.923L452.423 240.976H449.922L448.422 244.485L446.922 245.487H443.422L441.922 241.979H433.921L428.42 243.482L425.92 241.979H418.919L400.095 166.18H387.854L387.416 243.983L382.416 244.485L380.916 245.487L379.416 244.485L371.915 243.482L365.914 242.981L354.413 243.983L351.413 246.489L348.413 245.988L344.89 244.485ZM387.854 141.401H399.855C405.935 141.401 410.656 140.359 414.016 138.274C417.377 136.029 419.697 132.901 420.977 128.892C422.417 124.722 423.137 119.75 423.137 113.977C423.137 105.637 421.617 99.1418 418.577 94.4908C415.536 89.8398 409.936 87.5143 401.775 87.5143H387.854V141.401Z" fill="white"/>
<path d="M563.433 244.986C550.432 246.991 538.931 244.485 526.43 243.983C518.749 238.37 516.457 234.501 513.097 224.397C509.897 214.133 508.296 202.345 508.296 189.034V123.599C508.296 109.807 510.057 97.8587 513.577 87.7549C517.097 77.6511 523.098 69.8727 531.579 64.4199C540.219 58.8066 551.9 56 566.622 56C581.023 56 592.304 58.4057 600.465 63.217C608.786 68.0284 614.706 74.6841 618.227 83.1841C621.747 91.6842 623.507 101.628 623.507 113.014V125.524H581.503V109.647C581.503 105.477 581.183 101.628 580.543 98.0993C580.063 94.571 578.783 91.7644 576.703 89.6794C574.783 87.4341 571.582 86.3115 567.102 86.3115C562.461 86.3115 559.101 87.5945 557.021 90.1606C554.941 92.5663 553.581 95.6134 552.941 99.3021C552.461 102.991 552.22 106.84 552.22 110.849V201.062C552.22 205.392 552.621 209.482 553.421 213.331C554.381 217.02 555.981 220.067 558.221 222.473C560.621 224.718 563.982 225.841 568.302 225.841C572.782 225.841 576.223 224.638 578.623 222.232C581.023 219.826 582.703 216.699 583.663 212.85C584.624 209.001 585.104 204.911 585.104 200.581V177.727H567.582V152.468H623.747V241.979H621.939L614.938 242.48L612.938 243.983L608.937 244.485L600.437 243.983H597.936L593.936 242.48L593.024 237.388C590.464 242.841 587.935 243.482 587.935 243.482C580.935 245.487 578.935 242.48 563.433 244.986Z" fill="white"/>
<path d="M675.36 241.979V58.6462H718.324V137.552H748.327V58.6462H791.531V244.485L786.954 244.986L784.954 246.489L782.954 244.986L777.953 243.482L770.453 241.979L762.952 239.473H753.951L747.95 238.47L748.327 168.345H718.324L717.948 240.475L709.447 241.979L700.946 240.976L690.445 241.979H675.36Z" fill="white"/>
<path d="M836.459 250.499L872.503 58.6462H921.467L956.97 249.998L953.97 248.995H948.469L942.469 249.496H935.968H925.967L919.967 248.995H917.466L911.626 212.369H883.064L876.963 249.496L875.462 249.998L872.462 250.499L867.962 249.496L859.961 249.998C859.961 249.998 859.961 247.993 859.961 244.986C859.961 243.568 858.461 241.478 855.461 241.478C852.46 241.478 853.46 241.478 851.46 241.979C850.656 242.18 849.865 242.758 849.46 243.482C849.066 244.186 848.96 245.487 848.96 245.487V250.499H841.959L837.959 251L836.459 250.499ZM886.904 186.628H907.546L897.225 110.609L886.904 186.628Z" fill="white"/>
<path d="M1001.34 249.998V58.6462H1050.55C1067.51 58.6462 1080.71 60.8113 1090.15 65.1416C1099.59 69.3114 1106.23 75.9671 1110.07 85.1087C1113.91 94.0898 1115.83 105.797 1115.83 120.232V190.958C1115.83 205.553 1113.91 217.501 1110.07 226.803C1106.23 235.944 1099.59 242.68 1090.15 247.011C1080.87 251.341 1077.28 250.499 1060.48 250.499H1043.98H1024.98L1001.34 249.998ZM1044.31 223.676H1051.03C1057.59 223.676 1062.31 222.713 1065.19 220.789C1068.07 218.864 1069.83 215.977 1070.47 212.128C1071.27 208.279 1071.67 203.468 1071.67 197.694V112.774C1071.67 107 1071.19 102.349 1070.23 98.821C1069.43 95.2927 1067.59 92.7266 1064.71 91.1229C1061.83 89.5191 1057.19 88.7172 1050.79 88.7172H1044.31V223.676Z" fill="white"/>
<path d="M1154.49 250.499L1190.53 58.6462H1239.5L1274 243.983L1272.5 243.482H1270.5L1267 244.986L1263 248.494H1255L1245 247.993H1239.5L1235.5 249.496L1229.66 212.369H1201.09L1194.99 248.995H1193.99H1191.99H1184.99H1173.99L1162.99 249.496L1157.99 250.499H1155.99H1154.49ZM1204.93 186.628H1225.58L1215.25 110.609L1204.93 186.628Z" fill="white"/>
</g>
<defs>
<filter id="filter0_d_564_6463" x="0" y="48" width="1284" height="215" filterUnits="userSpaceOnUse" color-interpolation-filters="sRGB">
<feFlood flood-opacity="0" result="BackgroundImageFix"/>
<feColorMatrix in="SourceAlpha" type="matrix" values="0 0 0 0 0 0 0 0 0 0 0 0 0 0 0 0 0 0 127 0" result="hardAlpha"/>
<feOffset dy="2"/>
<feGaussianBlur stdDeviation="5"/>
<feComposite in2="hardAlpha" operator="out"/>
<feColorMatrix type="matrix" values="0 0 0 0 0 0 0 0 0 0 0 0 0 0 0 0 0 0 0.08 0"/>
<feBlend mode="normal" in2="BackgroundImageFix" result="effect1_dropShadow_564_6463"/>
<feBlend mode="normal" in="SourceGraphic" in2="effect1_dropShadow_564_6463" result="shape"/>
</filter>
</defs>
</svg>
